<?xml version="1.0" encoding="UTF-8" standalone="no"?>
<!-- Created with Inkscape (http://www.inkscape.org/) -->

<svg
   xmlns:dc="http://purl.org/dc/elements/1.1/"
   xmlns:cc="http://creativecommons.org/ns#"
   xmlns:rdf="http://www.w3.org/1999/02/22-rdf-syntax-ns#"
   xmlns:svg="http://www.w3.org/2000/svg"
   xmlns="http://www.w3.org/2000/svg"
   xmlns:inkscape="http://www.inkscape.org/namespaces/inkscape"
   version="1.1"
   width="320.14749"
   height="196.13126"
   id="svg2"
   xml:space="preserve"><metadata
     id="metadata8"><rdf:RDF><cc:Work
         rdf:about=""><dc:format>image/svg+xml</dc:format><dc:type
           rdf:resource="http://purl.org/dc/dcmitype/StillImage" /></cc:Work></rdf:RDF></metadata><defs
     id="defs6"><clipPath
       id="clipPath18"><path
         d="m 0,156.905 256.118,0 L 256.118,0 0,0 0,156.905 z"
         inkscape:connector-curvature="0"
         id="path20" /></clipPath></defs><g
     transform="matrix(1.25,0,0,-1.25,0,196.13125)"
     id="g10"><path
       d="M 255.618,0.5 0.5,0.5 l 0,155.905 255.118,0 0,-155.905 z"
       inkscape:connector-curvature="0"
       id="path12"
       style="fill:#ffffff;fill-opacity:1;fill-rule:nonzero;stroke:none" /><g
       id="g14"><g
         clip-path="url(#clipPath18)"
         id="g16"><g
           transform="translate(46.1001,74.7666)"
           id="g22"><path
             d="m 0,0 2.826,0 c 3.217,0 5.446,0.459 6.687,1.377 1.24,0.919 1.86,2.539 1.86,4.863 0,1.475 -0.33,2.699 -0.989,3.673 -0.659,0.973 -1.476,1.593 -2.449,1.86 -0.973,0.267 -2.598,0.4 -4.874,0.4 L 0,12.173 0,0 z m -4.945,-12.386 0,24.559 -4.121,0 0,4.098 11.703,0 c 3.438,0 6.012,-0.244 7.723,-0.73 1.711,-0.487 3.144,-1.59 4.298,-3.309 1.154,-1.719 1.731,-3.748 1.731,-6.086 0,-1.869 -0.381,-3.544 -1.142,-5.028 C 14.485,-0.365 13.543,-1.46 12.421,-2.167 11.298,-2.873 10.035,-3.348 8.63,-3.592 7.225,-3.835 5.102,-3.956 2.26,-3.956 l -2.26,0 0,-8.43 4.238,0 0,-4.097 -13.304,0 0,4.097 4.121,0 z"
             inkscape:connector-curvature="0"
             id="path24"
             style="fill:#000000;fill-opacity:1;fill-rule:nonzero;stroke:none" /></g><g
           transform="translate(68.1875,88.8237)"
           id="g26"><path
             d="m 0,0 c 0,0.722 0.255,1.35 0.765,1.884 0.51,0.533 1.157,0.801 1.943,0.801 0.737,0 1.373,-0.26 1.907,-0.778 C 5.148,1.389 5.416,0.753 5.416,0 5.416,-0.753 5.148,-1.393 4.615,-1.919 4.081,-2.445 3.445,-2.708 2.708,-2.708 1.954,-2.708 1.314,-2.441 0.789,-1.907 0.263,-1.374 0,-0.738 0,0 m 0.636,-26.561 0,14.835 -3.532,0 0,3.979 8.005,0 0,-18.814 3.533,0 0,-3.98 -11.538,0 0,3.98 3.532,0 z"
             inkscape:connector-curvature="0"
             id="path28"
             style="fill:#000000;fill-opacity:1;fill-rule:nonzero;stroke:none" /></g><g
           transform="translate(99.0342,71.7988)"
           id="g30"><path
             d="m 0,0 c -0.314,1.602 -1.146,3.05 -2.496,4.345 -1.351,1.295 -3.006,1.942 -4.969,1.942 -1.789,0 -3.32,-0.585 -4.591,-1.754 C -13.328,3.363 -14.105,1.853 -14.388,0 L 0,0 z m 4.615,-3.249 -19.167,0 c 0.282,-2.104 1.114,-3.807 2.496,-5.109 1.381,-1.304 3.147,-1.955 5.298,-1.955 3.123,0 5.596,1.255 7.417,3.767 l 3.956,-1.742 c -1.287,-1.994 -2.959,-3.474 -5.015,-4.439 -2.057,-0.965 -4.208,-1.448 -6.453,-1.448 -3.484,0 -6.463,1.087 -8.936,3.261 -2.472,2.175 -3.708,5.106 -3.708,8.795 0,3.501 1.205,6.382 3.614,8.642 2.41,2.261 5.176,3.391 8.3,3.391 3.062,0 5.836,-1.103 8.325,-3.309 2.487,-2.206 3.779,-5.49 3.873,-9.854"
             inkscape:connector-curvature="0"
             id="path32"
             style="fill:#000000;fill-opacity:1;fill-rule:nonzero;stroke:none" /></g><g
           transform="translate(115.2109,81.0767)"
           id="g34"><path
             d="m 0,0 0,-2.754 c 2.873,2.071 5.494,3.108 7.865,3.108 1.475,0 2.696,-0.35 3.661,-1.048 0.966,-0.699 1.597,-1.555 1.896,-2.567 0.299,-1.013 0.447,-2.492 0.447,-4.439 l 0,-11.114 3.839,0 0,-3.979 -8.312,0 0,14.905 c 0,1.726 -0.26,2.852 -0.778,3.379 C 8.1,-3.983 7.464,-3.72 6.711,-3.72 4.733,-3.72 2.496,-4.686 0,-6.617 l 0,-12.197 3.933,0 0,-3.979 -12.41,0 0,3.979 4.003,0 0,14.835 -4.003,0 0,3.979 L 0,0 z"
             inkscape:connector-curvature="0"
             id="path36"
             style="fill:#000000;fill-opacity:1;fill-rule:nonzero;stroke:none" /></g><g
           transform="translate(135.0605,58.2832)"
           id="g38"><path
             d="m 0,0 0,7.817 4.004,0 0,-0.753 C 4.145,5.996 4.722,5.117 5.734,4.427 6.747,3.736 7.943,3.391 9.325,3.391 c 1.445,0 2.598,0.251 3.461,0.754 0.863,0.501 1.296,1.2 1.296,2.095 0,0.864 -0.357,1.499 -1.072,1.907 -0.714,0.409 -2.131,0.784 -4.251,1.127 -3.14,0.531 -5.381,1.388 -6.723,2.575 -1.342,1.185 -2.012,2.72 -2.012,4.606 0,1.9 0.73,3.491 2.19,4.772 1.46,1.28 3.383,1.92 5.768,1.92 2.152,0 4.004,-0.443 5.558,-1.328 l 0,0.974 3.98,0 0,-7.558 -3.98,0 0,1.389 c -1.209,1.868 -2.967,2.803 -5.274,2.803 -1.178,0 -2.148,-0.256 -2.909,-0.766 -0.761,-0.511 -1.141,-1.189 -1.141,-2.037 0,-0.863 0.348,-1.456 1.048,-1.777 0.698,-0.323 2.201,-0.663 4.508,-1.022 2.214,-0.345 3.886,-0.748 5.016,-1.211 1.131,-0.464 2.068,-1.232 2.814,-2.308 0.746,-1.077 1.119,-2.328 1.119,-3.757 0,-2.12 -0.813,-3.805 -2.438,-5.053 -1.625,-1.249 -3.732,-1.873 -6.322,-1.873 -2.434,0 -4.419,0.553 -5.957,1.658 L 4.004,0 0,0 z"
             inkscape:connector-curvature="0"
             id="path40"
             style="fill:#000000;fill-opacity:1;fill-rule:nonzero;stroke:none" /></g><g
           transform="translate(171.8887,66.7598)"
           id="g42"><path
             d="m 0,0 c -1.931,1.508 -3.886,2.261 -5.863,2.261 -1.241,0 -2.277,-0.362 -3.109,-1.083 -0.832,-0.723 -1.248,-1.657 -1.248,-2.802 0,-1.068 0.366,-1.963 1.095,-2.685 0.73,-0.722 1.723,-1.083 2.979,-1.083 2.167,0 4.215,0.911 6.146,2.732 L 0,0 z m 8.265,-4.497 0,-3.98 -7.818,0 0,2.779 c -2.166,-2.104 -4.584,-3.156 -7.253,-3.156 -2.072,0 -3.873,0.675 -5.403,2.026 -1.531,1.349 -2.296,3.076 -2.296,5.181 0,2.119 0.812,3.876 2.437,5.274 1.625,1.396 3.583,2.096 5.875,2.096 2.134,0 4.199,-0.645 6.193,-1.932 l 0,2.261 c 0,1.162 -0.11,2.056 -0.33,2.684 -0.22,0.628 -0.733,1.194 -1.542,1.696 -0.809,0.502 -1.864,0.754 -3.167,0.754 -2.245,0 -3.87,-0.896 -4.875,-2.685 l -4.285,1.13 c 1.899,3.548 5.18,5.322 9.843,5.322 1.71,0 3.19,-0.232 4.438,-0.695 C 1.33,13.795 2.26,13.199 2.872,12.469 3.484,11.738 3.896,10.95 4.108,10.103 4.32,9.255 4.427,7.904 4.427,6.052 l 0,-10.549 3.838,0 z"
             inkscape:connector-curvature="0"
             id="path44"
             style="fill:#000000;fill-opacity:1;fill-rule:nonzero;stroke:none" /></g><g
           transform="translate(213.873,107.1533)"
           id="g46"><path
             d="m 0,0 c -3.361,0 -6.085,-2.726 -6.085,-6.087 0,-3.36 2.724,-6.086 6.085,-6.086 3.361,0 6.087,2.726 6.087,6.086 C 6.087,-2.726 3.361,0 0,0"
             inkscape:connector-curvature="0"
             id="path48"
             style="fill:#000000;fill-opacity:1;fill-rule:nonzero;stroke:none" /></g><g
           transform="translate(207.7881,95.4326)"
           id="g50"><path
             d="m 0,0 c -1.848,0 -3.346,-1.497 -3.346,-3.345 0,-1.358 0.812,-2.525 1.976,-3.048 -1.244,-3.704 -0.807,-3.183 -3.292,-9.461 -0.168,0.472 -0.844,-0.513 -1.309,-1.309 -0.629,1.699 -0.926,3.727 -3.634,3.345 -0.408,0.561 -1.031,0.907 -1.455,1.453 0.404,-0.083 1.222,0.299 0.728,1.017 0.217,0.026 0.179,0.228 0.145,0.437 1.117,1.598 -0.293,2.89 -0.726,4.07 -0.155,0.426 0.033,0.94 -0.147,1.309 -0.571,1.178 -1.964,1.079 -3.052,1.454 -3.32,-1.382 -5.709,-3.692 -6.106,-7.996 0.392,-0.625 1.136,-0.9 1.162,-1.89 -1.62,-0.495 -1.363,-2.393 -1.307,-3.925 0.088,-2.363 0.319,-5.319 1.599,-6.542 -0.611,-1.472 -0.888,-3.28 -1.163,-5.089 0.476,-0.203 0.964,-0.392 1.599,-0.435 0.143,-2.216 -1.762,-8.56 -2.325,-9.74 0.215,-0.076 0.366,-0.215 0.58,-0.291 -0.093,-0.973 -0.473,-1.66 -0.436,-2.762 0.78,-0.141 1.148,-0.694 2.181,-0.582 0.252,-0.088 -0.011,-0.69 0.29,-0.726 0.634,-0.004 1.309,-0.049 1.745,0.145 -0.016,-0.515 0.294,-8.784 0.382,-11.14 0,0 -0.969,-1.538 -1.648,-2.34 -0.678,-0.801 0,-1.542 0,-1.542 0,0 1.851,0.247 2.53,0.624 0.679,0.378 1.851,1.165 1.851,1.165 0,0 0.062,0.741 0,1.111 -0.061,0.37 -0.303,0.982 -0.303,0.982 l 0.967,11.547 0.583,0.174 c -0.103,-1.051 0.724,-9.348 0.926,-11.342 -0.084,-0.137 -0.176,-0.312 -0.261,-0.541 -0.247,-0.669 0,-2.115 0,-2.115 0,0 1.606,-0.309 2.346,-0.679 0.74,-0.371 3.394,-0.432 3.331,0 -0.06,0.432 0.186,0.616 -0.926,1.172 -1.109,0.556 -2.074,1.622 -2.074,1.622 0,0 0.518,10.721 0.584,12.319 0.873,0.601 3.211,-0.335 3.343,1.309 0.433,0.1 0.889,0.176 1.016,0.581 -0.913,5.041 -3.609,8.821 -3.633,14.828 0.813,0.085 1.447,0.484 1.925,1.064 0.007,-0.928 0.103,-1.852 0.45,-2.592 0.257,-0.55 0.583,-1.033 0.691,-1.645 0.112,-0.646 -0.253,-0.943 -0.596,-1.441 -0.407,-0.592 -0.602,-1.258 -0.385,-1.965 0.061,-0.201 0.318,-0.974 0.631,-0.974 0.409,0 -0.236,0.891 -0.275,1.002 -0.252,0.723 0.025,1.359 0.46,1.94 0.908,1.214 0.32,2.015 -0.228,3.263 -0.376,0.859 -0.311,2.007 -0.331,2.922 l 0,0.104 c 0.741,1.33 0.919,3.185 0.71,4.574 0.31,0.706 0.717,1.319 0.873,2.181 -0.271,0.46 -0.376,1.463 -0.873,1.889 1.226,3.085 2.238,6.546 3.22,9.321 0.319,-0.101 0.655,-0.155 1.007,-0.155 1.846,0 3.342,1.497 3.342,3.343 C 3.342,-1.497 1.846,0 0,0"
             inkscape:connector-curvature="0"
             id="path52"
             style="fill:#000000;fill-opacity:1;fill-rule:nonzero;stroke:none" /></g><g
           transform="translate(216.3418,126.4854)"
           id="g54"><path
             d="m 0,0 c -5.058,0 -9.158,-4.1 -9.158,-9.158 0,-5.059 4.1,-9.159 9.158,-9.159 5.058,0 9.158,4.1 9.158,9.159 C 9.158,-4.1 5.058,0 0,0"
             inkscape:connector-curvature="0"
             id="path56"
             style="fill:#000000;fill-opacity:1;fill-rule:nonzero;stroke:none" /></g></g></g></g></svg>
