<?xml version="1.0" encoding="utf-8"?>
<!-- Generator: Adobe Illustrator 22.0.1, SVG Export Plug-In . SVG Version: 6.00 Build 0)  -->
<svg version="1.1" id="icon" xmlns="http://www.w3.org/2000/svg" xmlns:xlink="http://www.w3.org/1999/xlink" x="0px" y="0px"
	 viewBox="0 0 200 200" style="enable-background:new 0 0 200 200;" xml:space="preserve">
<style type="text/css">
	.st0{fill:#FFFFFF;stroke:#939393;stroke-width:3;stroke-linecap:round;stroke-linejoin:round;stroke-miterlimit:10;}
	.st1{clip-path:url(#SVGID_2_);}
	.st2{fill:#939393;}
	.st3{clip-path:url(#SVGID_4_);}
	.st4{clip-path:url(#SVGID_6_);}
	.st5{fill:#FEE2CD;}
	.st6{fill:#F36E21;}
	.st7{fill:#FFFFFF;stroke:#F36E21;stroke-width:3;stroke-linecap:round;stroke-linejoin:round;stroke-miterlimit:10;}
	.st8{fill:none;stroke:#F36E21;stroke-linecap:round;stroke-miterlimit:10;}
	.st9{fill:none;stroke:#939393;stroke-width:3;stroke-linecap:round;stroke-linejoin:round;stroke-miterlimit:10;}
	.st10{clip-path:url(#SVGID_8_);}
	.st11{fill:none;stroke:#F36E21;stroke-width:3;stroke-miterlimit:10;}
	.st12{fill:#A2A2A5;}
	.st13{fill:#FFFFFF;}
	.st14{clip-path:url(#SVGID_10_);}
	.st15{fill:none;stroke:#F36E21;stroke-miterlimit:10;}
</style>
<g>
	<g>
		<g>
			<polygon class="st9" points="92.3,53.6 92.2,126.3 30.1,135 30.2,44.9 75.9,38.6 			"/>
		</g>
		<g>
			<defs>
				<polygon id="SVGID_7_" points="84.1,46.4 83.7,120.6 41.5,126.8 42,52.7 				"/>
			</defs>
			<clipPath id="SVGID_2_">
				<use xlink:href="#SVGID_7_"  style="overflow:visible;"/>
			</clipPath>
			<g class="st1">
				<g>
					<line class="st11" x1="92.3" y1="114.1" x2="30.1" y2="122.7"/>
				</g>
				<g>
					<line class="st11" x1="92.3" y1="105" x2="30.1" y2="113.6"/>
				</g>
				<g>
					<line class="st11" x1="92.3" y1="95.9" x2="30.1" y2="104.5"/>
				</g>
				<g>
					<line class="st11" x1="92.3" y1="86.8" x2="30.1" y2="95.4"/>
				</g>
				<g>
					<line class="st11" x1="92.3" y1="77.7" x2="30.1" y2="86.3"/>
				</g>
				<g>
					<line class="st11" x1="92.3" y1="68.6" x2="30.1" y2="77.2"/>
				</g>
				<g>
					<line class="st11" x1="92.3" y1="59.5" x2="30.1" y2="68.1"/>
				</g>
			</g>
		</g>
		<polygon class="st0" points="75.9,38.6 75.9,55.8 92.3,53.6 		"/>
	</g>
	<g>
		<g>
			<polygon class="st0" points="47.9,140.4 86.8,161.4 169.9,149.1 131,128 			"/>
		</g>
		<polygon class="st0" points="131,128 130.5,72.1 48,83.8 47.9,140.4 		"/>
		<polygon class="st5" points="124.4,123 123.9,79.9 54.7,89.6 54.5,133.3 		"/>
		<g>
			<path class="st12" d="M129.3,133.1l24.1,12.6L87.7,155l-24.1-12.6L129.3,133.1z M79.2,141.7l-9.8,1.4l4.8,2.5l9.8-1.4L79.2,141.7
				z M89,140.4l-6.6,0.9l4.8,2.5l6.6-0.9L89,140.4z M98.9,139l-6.6,0.9l4.8,2.5l6.6-0.9L98.9,139z M108.7,137.6l-6.6,0.9l4.8,2.5
				l6.6-0.9L108.7,137.6z M118.6,136.2l-6.6,0.9l4.8,2.5l6.6-0.9L118.6,136.2z M128.4,134.8l-6.6,0.9l4.8,2.5l6.6-0.9L128.4,134.8z
				 M129.7,144.2l-32.8,4.6l4.8,2.5l32.8-4.6L129.7,144.2z M135.6,138.6l-13.1,1.8l4.8,2.5l13.1-1.8L135.6,138.6z M89.7,145.1
				l-13.1,1.8l4.8,2.5l13.1-1.8L89.7,145.1z M99.5,143.7l-6.6,0.9l4.8,2.5l6.6-0.9L99.5,143.7z M109.4,142.3l-6.6,0.9l4.8,2.5
				l6.6-0.9L109.4,142.3z M119.2,140.9l-6.6,0.9l4.8,2.5l6.6-0.9L119.2,140.9z"/>
		</g>
	</g>
	<g>
		<g>
			<polygon class="st13" points="123.9,80.4 124.4,123 54.9,133.3 55,90 			"/>
			<g>
				<g>
					<defs>
						<polygon id="SVGID_9_" points="123.9,80.4 123.8,122.4 54.9,133.3 55,90 						"/>
					</defs>
					<clipPath id="SVGID_4_">
						<use xlink:href="#SVGID_9_"  style="overflow:visible;"/>
					</clipPath>
					<g class="st3">
						<path class="st5" d="M65.3,95.4l3.2-1.3l2,0.1l0.4,2l-0.5,2.2l-1.2,2.9l0.7,1.2l1.8,2.4l1.5,2l1.6,0.1l1.7,0.9l1,1.2
							c0,0,1.1,0.6,1.1,0.5c0-0.1,0.5-0.4,0.5-0.4l0.4,0.7l-0.6,1.3l-0.5,2l1.1,2.1l1,1.3l1.4,0.8l0.3,2.8l0.1,3.4l0.8,3l1.5,1.6
							l1.3,0.3l1-0.1l-1.3-0.7l-0.3-0.9l0.1-2.4l0.7-0.9l0.6-1.1l1.3-2.1l0.2-1.5l1.5-0.9l1-3.4l1-2.2l-3.9-1.5l-0.8-1.5l-1.1-0.3
							l-0.7-0.1l-1-1.3l-2,0.3l-1.1-0.4l-1.1,1.2l-1.3,0.1l-0.5-0.8l0.1-1l-0.4-0.2l-1,0.1l0.6-1.6l-0.6-0.1l-1.3,1l-0.9-1l0.2-1.6
							l1.8-1l0.8,0.1l0.7-0.4l0.6,0.2l0.5,1.4l0.4,0v-2.2l1.9-1.7l0.8-1.3l1.3-0.6l1-1.2l1.1-0.3l0.1-1.3l2-0.8l0.1-1.2l-0.3-1.2
							l-1.1,0.3L86,91.7l-1.5,0l-0.5,1.7l-1.2,0.5l-0.5,0.9l-0.4-0.1l0.2-0.7l-1.2-0.4L80.3,93l2.2-1.7l1.4-0.2l0.9-1.2l1-0.8
							l-2.4,0.7l-2.9,0.5l-2.1,0.3l-2.5-0.4l-1.9,0.6l-3.4-0.3c0,0-2.4,1-2.6,1c-0.1,0.1-0.5,0.6-0.5,0.6L66,93.1l-0.9,0.8l-0.2,0.7
							L65.3,95.4z"/>
						<path class="st5" d="M135.9,84l-2.7,0.2l-2.8-0.6l-1.6,0.6l-3.2-0.1l-2.2,0.3l-1.8-0.8l-2.8,1l-1.5,0.7l-1-0.1l-0.7,0.3v0.8
							l-1.2,0.1l-1.9,0.6l-1.2,0.3l-2.4-0.5l-1.7-0.1l-2,1.1l-0.7,0.9l-1.3,1v0.5v0.6l1.2-0.3l-0.5,0.9l0.1,0.6l-1.1,0.6l-0.5,0.5
							l-0.8,0.6l-1.2,0.3l0.9,0.6v1l-1.9,0.2v1l-0.5,0.7l0.2,0.4l1-0.1l-0.1,0.5l-1.1,1.4v0.5l-1.3,1.3l-0.7,1.5l0.2,1.4l-0.2,0.9
							l1.2,2.1c0,0,1,0.8,1.1,0.8c0.1,0,1.4-0.1,1.4-0.1l1.4-0.6l0.9,0l1.1,0.7l-0.1,1.6l0.9,1l0.6,1.2l-0.5,1.9l0.3,2.1l0.8,2.3
							l0.6,1.6c0,0,2.1-0.4,2.2-0.5c0.1-0.1,1.7-2.2,1.7-2.2l0.6-0.8l0.1-1.8l1.7-1.5l-0.3-2.6l0.1-1l1.9-2.8l1.3-2.1l0.1-0.5
							l-2,0.5l-2-2.3l-1.2-2.4l0.4-0.5l1.1,1.5l1.1,2.4l0.6,0.6l1.8-0.7l1.4-1.4l0.8-1.2l-1.1-1l-0.9,0.5l-1.5-1.6l0.4-0.2l1.6,0.9
							l0.7,0.1l0.5,0.2l1.7,0l1.1,0.7l0.7,0.6l0.6,0l0.4,2.3l1,1.4l0.7-0.5l0.1,1.2l0.4,0l0.3-0.8l-0.8-1.3l0.6-1.9l1.4-1.3l1.2,0
							l0.5,1.4l0.4,0.5l0.9,0.2v2.1l0.7,0.9l-1-0.4l-0.5,0.4l1.8,2.4l1.3,0.8l2,0.7l0.3-0.4c0,0-0.1-0.3-0.2-0.3
							c-0.1,0-1.9-0.2-1.9-0.2l-0.3-1.3l-0.4-1l-0.2-1l-1.2-1.1V102l0.9,0.1l0.5,1l0.7,0.2l1-1c0,0-1.1-2-1.2-1.9
							c0,0.1-0.6-0.4-0.6-0.4l0.4-0.8l0.7,0.1l2.4-1.4l0.3-1.7l-0.6-1.1l-0.4-0.7l-0.8-0.7L133,93l0.3,0.6l1.1-0.1l0.7,1.1l0.6,0.1
							l0.2-0.7l-1-1.1l0.4-0.8l1.1-1.5l-0.9-1.8l-1.3-0.4l-0.1-1.1l2.3-0.4l0.9-0.8l0.9,0v1.8l1.4,1.1l-0.4-2.6l0.8-0.3l0.8-0.7
							v-1.2L135.9,84z M110.9,98l-0.6,0.5l-2.2,0.1l-1-0.3l-0.2,0.8l-0.5,0.1l-0.8-0.5l-1.4-0.2v-1.1l-1.7,0.2l-1.8,0.7l-0.6-0.3
							l1.3-1l0.8-1v-0.4l0.7-0.1l0.9-0.5l1.3,1.2l0.4,0.9l0.7-1l-0.5-0.3l-1-0.7v-0.6l0.4,0.2l1.4,1L107,97l0.6-0.2l-0.2-1.1
							l0.8-0.1l-0.1,0.6l1,0.6l1.7-0.2V98z"/>
					</g>
				</g>
				<g>
					<polygon class="st6" points="75.6,130.3 54.9,133.3 55,90 75.6,87.1 					"/>
					<g>
						<polygon class="st13" points="72.8,110.4 59.8,112.3 59.8,107.9 72.8,106.2 						"/>
						<polygon class="st13" points="61.5,116.7 60.5,116.8 60.5,115.5 61.5,115.3 						"/>
						<polygon class="st13" points="62.9,116.5 62,116.6 62,114.5 62.9,114.4 						"/>
						<polygon class="st13" points="64.4,116.3 63.5,116.4 63.5,113.3 64.4,113.2 						"/>
						<polygon class="st13" points="65.9,116.1 65,116.2 64.9,113.8 65.9,113.6 						"/>
						<polygon class="st13" points="67.3,115.9 66.4,116 66.4,114.7 67.3,114.5 						"/>
						<polygon class="st13" points="68.8,115.7 67.9,115.8 67.9,113.7 68.8,113.5 						"/>
						<polygon class="st13" points="70.3,115.5 69.4,115.6 69.3,113.2 70.3,113 						"/>
						<polygon class="st13" points="71.7,115.3 70.8,115.4 70.8,114.4 71.7,114.2 						"/>
						<polygon class="st13" points="72.8,116.9 59.8,118.7 59.8,117.4 72.8,115.7 						"/>
						<polygon class="st13" points="72.8,123.3 59.8,125.1 59.8,120.8 72.8,119.1 						"/>
						<polygon class="st13" points="71.6,122.5 61.2,123.8 61.2,121.6 71.6,120.3 						"/>
						
							<ellipse transform="matrix(0.7792 -0.6268 0.6268 0.7792 -47.0261 60.3848)" class="st13" cx="62.2" cy="96.9" rx="2.3" ry="2.1"/>
						<polygon class="st13" points="72.8,94.8 65.9,95.8 65.8,94.2 72.8,93.4 						"/>
						<polygon class="st13" points="72.8,97.5 65.9,98.5 65.8,96.9 72.8,96.1 						"/>
						<polygon class="st13" points="72.8,104.1 59.8,106 59.8,104.4 72.8,102.7 						"/>
					</g>
				</g>
			</g>
		</g>
		<polygon class="st15" points="123.9,80.4 124.4,123 54.9,133.3 55,90 		"/>
	</g>
</g>
</svg>
