<?xml version="1.0" encoding="utf-8"?>
<!-- Generator: Adobe Illustrator 22.0.1, SVG Export Plug-In . SVG Version: 6.00 Build 0)  -->
<svg version="1.1" id="icon" xmlns="http://www.w3.org/2000/svg" xmlns:xlink="http://www.w3.org/1999/xlink" x="0px" y="0px"
	 viewBox="0 0 200 200" style="enable-background:new 0 0 200 200;" xml:space="preserve">
<style type="text/css">
	.st0{fill:none;stroke:#939393;stroke-width:3;stroke-linecap:round;stroke-linejoin:round;stroke-miterlimit:10;}
	.st1{clip-path:url(#SVGID_2_);}
	.st2{fill:none;stroke:#F36E21;stroke-width:3;stroke-miterlimit:10;}
	.st3{fill:#FFFFFF;stroke:#939393;stroke-width:3;stroke-linecap:round;stroke-linejoin:round;stroke-miterlimit:10;}
	.st4{fill:#FEE2CD;}
	.st5{fill:#939393;}
	.st6{fill:#FFFFFF;}
	.st7{clip-path:url(#SVGID_4_);}
	.st8{fill:#F36E21;}
	.st9{fill:none;stroke:#F36E21;stroke-miterlimit:10;}
</style>
<g>
	<g>
		<g>
			<polygon class="st0" points="92.3,53.6 92.2,126.3 30.1,135 30.2,44.9 75.9,38.6 			"/>
		</g>
		<g>
			<defs>
				<polygon id="SVGID_1_" points="84.1,46.4 83.7,120.6 41.5,126.8 42,52.7 				"/>
			</defs>
			<clipPath id="SVGID_2_">
				<use xlink:href="#SVGID_1_"  style="overflow:visible;"/>
			</clipPath>
			<g class="st1">
				<g>
					<line class="st2" x1="92.3" y1="114.1" x2="30.1" y2="122.7"/>
				</g>
				<g>
					<line class="st2" x1="92.3" y1="105" x2="30.1" y2="113.6"/>
				</g>
				<g>
					<line class="st2" x1="92.3" y1="95.9" x2="30.1" y2="104.5"/>
				</g>
				<g>
					<line class="st2" x1="92.3" y1="86.8" x2="30.1" y2="95.4"/>
				</g>
				<g>
					<line class="st2" x1="92.3" y1="77.7" x2="30.1" y2="86.3"/>
				</g>
				<g>
					<line class="st2" x1="92.3" y1="68.6" x2="30.1" y2="77.2"/>
				</g>
				<g>
					<line class="st2" x1="92.3" y1="59.5" x2="30.1" y2="68.1"/>
				</g>
			</g>
		</g>
		<polygon class="st3" points="75.9,38.6 75.9,55.8 92.3,53.6 		"/>
	</g>
	<g>
		<g>
			<polygon class="st3" points="47.9,140.4 86.8,161.4 169.9,149.1 131,128 			"/>
		</g>
		<polygon class="st3" points="131,128 130.5,72.1 48,83.8 47.9,140.4 		"/>
		<polygon class="st4" points="124.4,123 123.9,79.9 54.7,89.6 54.5,133.3 		"/>
		<g>
			<polygon class="st5" points="63.1,142.6 66,144.2 132.4,134.6 129.6,133 			"/>
		</g>
		<g>
			<polygon class="st5" points="67.8,145 70.6,146.6 137.1,137 134.2,135.4 			"/>
		</g>
		<g>
			<polygon class="st5" points="72.5,147.5 75.3,149 141.8,139.4 138.9,137.8 			"/>
		</g>
		<g>
			<polygon class="st5" points="77.1,149.9 80,151.4 146.4,141.8 143.6,140.2 			"/>
		</g>
		<g>
			<polygon class="st5" points="81.8,152.3 84.6,153.8 151.1,144.2 148.2,142.6 			"/>
		</g>
		<g>
			<polygon class="st5" points="86.5,154.7 89.3,156.2 155.8,146.6 152.9,145.1 			"/>
		</g>
		<g>
			<g>
				<polygon class="st6" points="67,141.7 71.7,144.2 74.9,143.8 70.2,141.3 				"/>
			</g>
			<g>
				<polygon class="st6" points="73.8,140.5 78.5,143 81.7,142.6 77,140.1 				"/>
			</g>
			<g>
				<polygon class="st6" points="80.8,139.3 85.5,141.8 88.7,141.4 84,138.9 				"/>
			</g>
			<g>
				<polygon class="st6" points="88.7,138.6 93.4,141.1 96.6,140.7 91.9,138.2 				"/>
			</g>
			<g>
				<polygon class="st6" points="95.3,137.5 100,140.1 103.2,139.7 98.5,137.1 				"/>
			</g>
			<g>
				<polygon class="st6" points="102,136.6 106.7,139.1 109.9,138.7 105.2,136.2 				"/>
			</g>
			<g>
				<polygon class="st6" points="108.5,135.3 113.2,137.9 116.4,137.5 111.7,135 				"/>
			</g>
			<g>
				<polygon class="st6" points="115.7,134.6 120.4,137.1 123.6,136.7 118.9,134.2 				"/>
			</g>
		</g>
		<g>
			<g>
				<polygon class="st6" points="83.5,142.1 88.2,144.7 91.4,144.3 86.7,141.8 				"/>
			</g>
			<g>
				<polygon class="st6" points="90.3,141 95,143.5 98.2,143.1 93.5,140.6 				"/>
			</g>
			<g>
				<polygon class="st6" points="97.3,139.8 102,142.3 105.2,141.9 100.5,139.4 				"/>
			</g>
			<g>
				<polygon class="st6" points="105.2,139.1 109.8,141.6 113,141.2 108.4,138.7 				"/>
			</g>
			<g>
				<polygon class="st6" points="111.8,138 116.5,140.5 119.7,140.1 115,137.6 				"/>
			</g>
			<g>
				<polygon class="st6" points="118.5,137.1 123.2,139.6 126.4,139.2 121.7,136.7 				"/>
			</g>
			<g>
				<polygon class="st6" points="125,135.8 129.7,138.3 132.9,138 128.2,135.4 				"/>
			</g>
		</g>
		<g>
			<g>
				<polygon class="st6" points="93.1,143.9 97.8,146.4 101,146 96.3,143.5 				"/>
			</g>
			<g>
				<polygon class="st6" points="99.9,142.8 104.6,145.3 107.8,144.9 103.1,142.4 				"/>
			</g>
			<g>
				<polygon class="st6" points="106.9,141.5 111.6,144.1 114.8,143.7 110.1,141.1 				"/>
			</g>
			<g>
				<polygon class="st6" points="114.8,140.8 119.5,143.4 122.7,143 118,140.4 				"/>
			</g>
			<g>
				<polygon class="st6" points="121.4,139.8 126.1,142.3 129.3,141.9 124.6,139.4 				"/>
			</g>
			<g>
				<polygon class="st6" points="128.1,138.9 132.8,141.4 136,141 131.3,138.5 				"/>
			</g>
		</g>
		<g>
			<g>
				<polygon class="st6" points="93.1,147.1 97.8,149.6 101,149.2 96.3,146.7 				"/>
			</g>
			<g>
				<polygon class="st6" points="99.9,146 104.6,148.5 107.8,148.1 103.1,145.6 				"/>
			</g>
			<g>
				<polygon class="st6" points="106.9,144.7 111.6,147.2 114.8,146.9 110.1,144.3 				"/>
			</g>
			<g>
				<polygon class="st6" points="114.8,144 119.5,146.6 122.7,146.2 118,143.6 				"/>
			</g>
			<g>
				<polygon class="st6" points="121.4,143 126.1,145.5 129.3,145.1 124.6,142.6 				"/>
			</g>
			<g>
				<polygon class="st6" points="128.1,142 132.8,144.6 136,144.2 131.3,141.7 				"/>
			</g>
		</g>
		<g>
			<g>
				<polygon class="st6" points="93.1,150.1 97.8,152.6 101,152.2 96.3,149.7 				"/>
			</g>
			<g>
				<polygon class="st6" points="99.9,149 104.6,151.5 107.8,151.1 103.1,148.6 				"/>
			</g>
			<g>
				<polygon class="st6" points="106.9,147.7 111.6,150.3 114.8,149.9 110.1,147.3 				"/>
			</g>
			<g>
				<polygon class="st6" points="114.8,147 119.5,149.6 122.7,149.2 118,146.6 				"/>
			</g>
			<g>
				<polygon class="st6" points="121.4,146 126.1,148.5 129.3,148.1 124.6,145.6 				"/>
			</g>
			<g>
				<polygon class="st6" points="128.1,145.1 132.8,147.6 136,147.2 131.3,144.7 				"/>
			</g>
		</g>
		<g>
			<g>
				<polygon class="st6" points="100.7,152 105.4,154.5 108.6,154.1 103.9,151.6 				"/>
			</g>
			<g>
				<polygon class="st6" points="129,147.9 133.7,150.4 136.9,150 132.2,147.5 				"/>
			</g>
			<g>
				<polygon class="st6" points="135.7,146.9 140.4,149.5 143.6,149.1 138.9,146.6 				"/>
			</g>
		</g>
		<g>
			<polygon class="st6" points="122.3,133.7 127,136.2 130.2,135.8 125.5,133.3 			"/>
		</g>
		<g>
			<polygon class="st6" points="76,143.1 80.7,145.6 83.9,145.2 79.2,142.7 			"/>
		</g>
		<g>
			<polygon class="st6" points="85.5,145.1 90.2,147.6 93.4,147.2 88.7,144.7 			"/>
		</g>
		<g>
			<polygon class="st6" points="85.1,148 89.8,150.5 93,150.1 88.3,147.6 			"/>
		</g>
		<g>
			<polygon class="st6" points="85.5,151 90.2,153.5 93.4,153.2 88.7,150.6 			"/>
		</g>
		<g>
			<polygon class="st6" points="89.9,153.6 94.6,156.1 97.8,155.7 93.1,153.2 			"/>
		</g>
	</g>
	<g>
		<g>
			<polygon class="st6" points="140.5,87.7 140.3,133.3 67.8,143.4 68,97.8 			"/>
			<g>
				<g>
					<defs>
						<polygon id="SVGID_3_" points="140.5,87.7 140.3,133.3 67.8,143.4 68,97.8 						"/>
					</defs>
					<clipPath id="SVGID_4_">
						<use xlink:href="#SVGID_3_"  style="overflow:visible;"/>
					</clipPath>
					<g class="st7">
						<path class="st4" d="M78.7,103.5l3.4-1.4l2.1,0.1l0.4,2.1l-0.5,2.4l-1.2,3.1l0.7,1.3l1.9,2.5l1.5,2.1l1.6,0.1l1.8,0.9l1,1.3
							c0,0,1.1,0.6,1.2,0.5s0.5-0.4,0.5-0.4l0.5,0.7l-0.6,1.3l-0.6,2.1l1.2,2.2l1,1.4l1.4,0.8l0.3,2.9l0.2,3.6l0.8,3.2l1.6,1.7
							l1.4,0.3l1.1-0.1l-1.4-0.7l-0.3-1l0.1-2.5l0.7-0.9l0.6-1.2l1.4-2.2l0.2-1.6l1.5-1l1-3.6l1.1-2.3l-4.1-1.6l-0.9-1.5l-1.2-0.3
							l-0.8-0.1l-1.1-1.3l-2.1,0.3l-1.1-0.4l-1.2,1.2l-1.4,0.1l-0.5-0.8l0.1-1.1l-0.4-0.3l-1.1,0.1l0.7-1.7l-0.6-0.1l-1.4,1
							l-0.9-1.1l0.2-1.7l1.9-1.1l0.9,0.1l0.7-0.4l0.7,0.3l0.5,1.4l0.4,0v-2.3l2-1.7l0.8-1.4l1.3-0.7l1.1-1.2l1.2-0.4l0.1-1.4
							l2.1-0.8l0.1-1.2l-0.3-1.2l-1.1,0.3l-0.4-0.9l-1.6,0l-0.5,1.8l-1.2,0.5l-0.5,1l-0.4-0.1l0.2-0.7l-1.3-0.4l-0.7-0.6l2.3-1.7
							l1.5-0.2l0.9-1.2l1.1-0.8l-2.5,0.7l-3.1,0.5l-2.2,0.3l-2.7-0.4l-2,0.7l-3.5-0.3c0,0-2.6,1-2.7,1.1c-0.2,0.1-0.5,0.6-0.5,0.6
							l-1.6,0.9l-0.9,0.8l-0.2,0.8L78.7,103.5z"/>
						<path class="st4" d="M153,91.5l-2.8,0.2l-3-0.7l-1.7,0.6l-3.4-0.1l-2.3,0.3l-1.9-0.8l-3,1.1l-1.6,0.8l-1.1-0.1l-0.8,0.3v0.8
							l-1.2,0.1l-2,0.6l-1.3,0.3l-2.5-0.5l-1.8-0.1l-2.1,1.1l-0.8,0.9l-1.3,1.1V98v0.7l1.2-0.3l-0.6,1l0.1,0.6l-1.2,0.6l-0.5,0.5
							l-0.8,0.6l-1.3,0.3l1,0.7v1l-2,0.2v1.1l-0.5,0.7l0.2,0.5l1-0.1l-0.1,0.5l-1.2,1.4v0.6l-1.4,1.4l-0.8,1.6l0.2,1.5l-0.2,0.9
							l1.2,2.2c0,0,1.1,0.8,1.2,0.8c0.1,0,1.5-0.2,1.5-0.2l1.5-0.6l1,0l1.2,0.7l-0.2,1.7l1,1l0.6,1.3l-0.5,2l0.3,2.2l0.8,2.4
							l0.6,1.7c0,0,2.2-0.4,2.3-0.5c0.1-0.1,1.8-2.3,1.8-2.3l0.6-0.8l0.1-1.9l1.8-1.6l-0.3-2.7l0.1-1l2-2.9l1.3-2.2l0.1-0.5
							l-2.1,0.5l-2.2-2.4l-1.3-2.6l0.5-0.5l1.2,1.6l1.1,2.5l0.6,0.6l1.9-0.8l1.5-1.5l0.9-1.3l-1.2-1.1l-1,0.6l-1.6-1.7l0.4-0.2
							l1.7,0.9l0.8,0.1l0.5,0.2l1.8,0l1.1,0.7l0.7,0.6l0.6,0l0.5,2.4l1,1.5l0.8-0.5l0.2,1.2l0.5,0l0.4-0.9l-0.8-1.3l0.6-1.9l1.5-1.4
							l1.2,0.1l0.5,1.5l0.5,0.6l1,0.2v2.2l0.7,1l-1.1-0.4l-0.6,0.4l1.9,2.5l1.4,0.8l2.1,0.8l0.4-0.5c0,0-0.1-0.3-0.2-0.3
							c-0.1-0.1-2-0.2-2-0.2l-0.3-1.4l-0.4-1l-0.2-1.1l-1.3-1.1v-1.7l1,0.1l0.5,1.1l0.8,0.2l1.1-1.1c0,0-1.2-2.1-1.2-2
							c0,0.1-0.6-0.4-0.6-0.4l0.4-0.8l0.7,0.1l2.5-1.5l0.3-1.8l-0.7-1.2l-0.5-0.7l-0.9-0.8l0.5-0.8l0.3,0.6l1.1-0.1l0.7,1.2l0.7,0.1
							l0.2-0.7l-1.1-1.2l0.5-0.9l1.1-1.6l-0.9-1.9l-1.4-0.4l-0.1-1.1l2.4-0.4l0.9-0.8l0.9,0.1v1.9l1.5,1.1l-0.5-2.7l0.8-0.4l0.9-0.8
							v-1.2L153,91.5z M126.8,106.2l-0.7,0.5l-2.3,0.1l-1.1-0.3l-0.2,0.8l-0.5,0.1l-0.8-0.5l-1.4-0.2v-1.1l-1.8,0.2l-1.9,0.7
							l-0.6-0.3l1.3-1l0.9-1v-0.4l0.7-0.1l1-0.5l1.3,1.2l0.4,0.9l0.7-1l-0.5-0.3l-1-0.7v-0.6l0.4,0.2l1.5,1l0.5,1.5l0.6-0.2
							l-0.2-1.1l0.9-0.1l-0.1,0.6l1.1,0.6l1.8-0.2V106.2z"/>
					</g>
				</g>
				<g>
					<polygon class="st8" points="89.6,140.2 67.8,143.4 68,97.8 89.6,94.8 					"/>
					<g>
						<polygon class="st6" points="86.6,119.3 73,121.3 73,116.7 86.6,114.9 						"/>
						<polygon class="st6" points="74.7,126 73.7,126.1 73.7,124.6 74.7,124.5 						"/>
						<polygon class="st6" points="76.2,125.7 75.3,125.9 75.3,123.6 76.2,123.5 						"/>
						<polygon class="st6" points="77.8,125.5 76.8,125.7 76.8,122.4 77.8,122.2 						"/>
						<polygon class="st6" points="79.3,125.3 78.4,125.4 78.4,122.8 79.3,122.7 						"/>
						<polygon class="st6" points="80.9,125.1 79.9,125.2 79.9,123.8 80.9,123.6 						"/>
						<polygon class="st6" points="82.4,124.9 81.5,125 81.5,122.8 82.4,122.6 						"/>
						<polygon class="st6" points="84,124.6 83,124.8 83,122.2 84,122.1 						"/>
						<polygon class="st6" points="85.5,124.4 84.6,124.6 84.6,123.5 85.5,123.3 						"/>
						<polygon class="st6" points="86.6,126.1 73,128 73,126.6 86.6,124.8 						"/>
						<polygon class="st6" points="86.6,132.8 73,134.8 73,130.2 86.6,128.4 						"/>
						<polygon class="st6" points="85.4,132 74.5,133.4 74.4,131.1 85.4,129.7 						"/>
						
							<ellipse transform="matrix(0.7792 -0.6268 0.6268 0.7792 -49.2271 70.523)" class="st6" cx="75.5" cy="105.1" rx="2.4" ry="2.2"/>
						<polygon class="st6" points="86.6,102.9 79.3,103.9 79.3,102.3 86.6,101.4 						"/>
						<polygon class="st6" points="86.6,105.8 79.3,106.8 79.3,105.1 86.6,104.2 						"/>
						<polygon class="st6" points="86.6,112.7 73,114.6 73,113 86.6,111.2 						"/>
					</g>
				</g>
			</g>
		</g>
		<polygon class="st9" points="140.5,87.7 140.3,133.3 67.8,143.4 68,97.8 		"/>
	</g>
</g>
</svg>
