<?xml version="1.0" encoding="utf-8"?>
<!-- Generator: Adobe Illustrator 22.0.1, SVG Export Plug-In . SVG Version: 6.00 Build 0)  -->
<svg version="1.1" id="icon" xmlns="http://www.w3.org/2000/svg" xmlns:xlink="http://www.w3.org/1999/xlink" x="0px" y="0px"
	 viewBox="0 0 200 200" style="enable-background:new 0 0 200 200;" xml:space="preserve">
<style type="text/css">
	.st0{fill:none;stroke:#939393;stroke-width:3;stroke-linecap:round;stroke-linejoin:round;stroke-miterlimit:10;}
	.st1{fill:#FEE2CD;}
	.st2{fill:#F36E21;}
</style>
<g>
	<g>
		<g>
			<g>
				<polyline class="st0" points="35.7,49.6 113.3,38.7 164.5,66.6 				"/>
			</g>
			<g>
				<polyline class="st0" points="35.7,132.8 113.3,121.9 164.5,149.7 				"/>
			</g>
		</g>
		<line class="st0" x1="113.3" y1="121.9" x2="112.8" y2="38.7"/>
		<circle class="st1" cx="96.3" cy="103.1" r="41.8"/>
		<g>
			<path class="st2" d="M82.8,110c0.4,0.6,0.6,1.2,0.6,1.8c0,0.6-0.2,1.2-0.5,1.6c-0.3,0.5-0.8,0.8-1.3,1c-0.6,0.2-1.2,0.2-2,0
				c-0.6-0.2-1.1-0.4-1.6-0.8c-0.5-0.4-1-0.8-1.4-1.1c-1.1-0.8-2.2-1.7-3.3-2.5c-1.1-0.8-2.2-1.7-3.3-2.5c-0.3-0.3-0.7-0.5-1.2-0.8
				c-0.5-0.3-0.9-0.6-1.3-1c-0.4-0.4-0.8-0.8-1-1.2c-0.3-0.4-0.4-0.9-0.3-1.5c0.1-0.8,0.5-1.5,1-2c0.6-0.5,1.2-0.9,1.8-1.4
				c1.1-0.8,2.2-1.7,3.3-2.6c1.1-0.9,2.2-1.7,3.3-2.6c0.6-0.5,1.3-1.1,2-1.7c0.7-0.6,1.4-1,2.2-1.3c0.7-0.2,1.3-0.1,1.8,0.1
				c0.5,0.2,0.9,0.6,1.2,1c0.3,0.5,0.5,1,0.5,1.5c0,0.6-0.1,1.1-0.4,1.7c-0.2,0.3-0.4,0.6-0.7,0.9c-0.3,0.3-0.6,0.6-1,0.9
				c-0.4,0.3-0.7,0.5-1.1,0.7c-0.3,0.2-0.6,0.4-0.8,0.6c-0.9,0.7-1.8,1.4-2.7,2.1c-0.9,0.7-1.8,1.4-2.6,2.1c1.5,1,3,2.1,4.4,3.2
				c1.4,1.1,2.9,2.2,4.3,3.3L82.8,110z"/>
			<path class="st2" d="M101,85.3c0.4-0.6,0.9-1.1,1.4-1.3c0.6-0.2,1.2-0.3,1.7-0.2c0.6,0.1,1.1,0.4,1.5,0.8c0.4,0.5,0.7,1,0.7,1.8
				c0,0.4,0,0.8-0.2,1.3c-0.2,0.5-0.3,1-0.6,1.5c-0.2,0.5-0.4,1-0.7,1.4c-0.2,0.4-0.4,0.7-0.4,0.9c-0.5,1.1-1,2.2-1.4,3.4
				c-0.5,1.1-1,2.2-1.4,3.4c-1.7,4-3.4,7.9-5.1,11.8c-1.7,3.9-3.4,7.8-5.1,11.7c-0.3,0.6-0.7,1-1.2,1.2c-0.6,0.2-1.1,0.3-1.7,0.2
				c-0.6-0.1-1.1-0.4-1.6-0.8c-0.5-0.4-0.7-1-0.8-1.8c-0.1-0.9,0.1-1.7,0.5-2.4c0.4-0.7,0.7-1.5,1.1-2.3c0.5-1.1,1-2.2,1.4-3.4
				c0.5-1.1,1-2.2,1.4-3.4c0.1-0.3,0.3-0.7,0.6-1.4c0.3-0.6,0.6-1.3,0.9-2c0.3-0.7,0.7-1.5,1-2.3c0.3-0.8,0.7-1.5,0.9-2.1
				c0.3-0.6,0.6-1.4,1-2.3c1-2.3,2-4.5,2.9-6.7c1-2.2,1.9-4.5,2.9-6.7L101,85.3z"/>
			<path class="st2" d="M110.7,109.6c1.4-1.1,2.9-2.1,4.3-3.2s2.8-2.2,4.3-3.2c-0.9-0.7-1.7-1.4-2.6-2.1c-0.9-0.7-1.8-1.4-2.7-2
				c-0.2-0.2-0.5-0.4-0.8-0.6c-0.3-0.2-0.7-0.5-1-0.7c-0.4-0.3-0.7-0.6-1-0.8c-0.3-0.3-0.6-0.6-0.7-0.9c-0.3-0.5-0.4-1.1-0.4-1.7
				c0-0.6,0.2-1.1,0.5-1.6c0.3-0.5,0.7-0.8,1.2-1.1c0.5-0.2,1.1-0.3,1.8-0.1c0.6,0.1,1.1,0.4,1.6,0.8c0.5,0.4,1,0.8,1.4,1.2
				c0.7,0.6,1.5,1.2,2.2,1.7c0.7,0.6,1.5,1.2,2.2,1.8c0.5,0.4,0.8,0.7,1,0.8c0.2,0.2,0.4,0.3,0.6,0.5c0.2,0.1,0.4,0.3,0.7,0.5
				c0.3,0.2,0.6,0.5,1.2,0.9c0.6,0.5,1.2,0.9,1.7,1.3c0.5,0.4,0.8,1,1,1.8c0.1,0.5,0,1.1-0.2,1.5c-0.3,0.5-0.6,0.9-1,1.3
				c-0.4,0.4-0.8,0.7-1.3,1s-0.9,0.6-1.2,0.8c-1.1,0.8-2.2,1.7-3.3,2.5c-1.1,0.8-2.2,1.7-3.3,2.5c-0.5,0.4-1,0.7-1.4,1.1
				c-0.5,0.4-1,0.7-1.6,0.8c-0.8,0.2-1.5,0.2-2.1,0c-0.6-0.2-1-0.6-1.3-1.1c-0.3-0.5-0.4-1.1-0.4-1.7c0-0.7,0.3-1.3,0.7-2
				L110.7,109.6z"/>
		</g>
	</g>
	<g>
		<polygon class="st0" points="86.7,161.3 35.5,133.4 35.7,49.6 86.9,77.5 		"/>
		<g>
			<polygon class="st0" points="164.5,66.6 164.3,150.4 86.7,161.3 86.9,77.5 			"/>
		</g>
	</g>
	<g>
		<circle class="st2" cx="35.7" cy="49.6" r="5.3"/>
		<circle class="st2" cx="112.8" cy="38.7" r="5.3"/>
		<circle class="st2" cx="164.5" cy="66.6" r="5.3"/>
		<circle class="st2" cx="86.9" cy="77.5" r="5.3"/>
		<circle class="st2" cx="86.9" cy="161.3" r="5.3"/>
		<circle class="st2" cx="164.5" cy="150" r="5.3"/>
		<circle class="st2" cx="35.5" cy="133.9" r="5.3"/>
	</g>
</g>
</svg>
