<?xml version="1.0" encoding="utf-8"?>
<!-- Generator: Adobe Illustrator 22.0.1, SVG Export Plug-In . SVG Version: 6.00 Build 0)  -->
<svg version="1.1" id="icon" xmlns="http://www.w3.org/2000/svg" xmlns:xlink="http://www.w3.org/1999/xlink" x="0px" y="0px"
	 viewBox="0 0 200 200" style="enable-background:new 0 0 200 200;" xml:space="preserve">
<style type="text/css">
	.st0{fill:#FFFFFF;stroke:#939393;stroke-width:3;stroke-linecap:round;stroke-linejoin:round;stroke-miterlimit:10;}
	.st1{clip-path:url(#SVGID_2_);}
	.st2{fill:#939393;}
	.st3{clip-path:url(#SVGID_4_);}
	.st4{clip-path:url(#SVGID_6_);}
	.st5{fill:#FEE2CD;}
	.st6{fill:#F36E21;}
	.st7{fill:#FFFFFF;stroke:#F36E21;stroke-width:3;stroke-linecap:round;stroke-linejoin:round;stroke-miterlimit:10;}
	.st8{fill:none;stroke:#F36E21;stroke-linecap:round;stroke-miterlimit:10;}
</style>
<g>
	<path class="st0" d="M68.3,27.8c-0.1,4.2,0.7,8.6,4.8,12.3c6.1,5.6,7.4,14.5,4.2,19.9l-27.7,3.9c0,0,4.2-13.4-4.3-20.4
		c-6.8-5.5-4-18.8-4-18.8l18.6-2.6C59.9,22.1,64.7,25.4,68.3,27.8z"/>
	<g>
		<polygon class="st0" points="74.9,100.2 35.6,78.8 95.1,70.5 134.4,91.8 		"/>
	</g>
	<g>
		<polygon class="st0" points="134.3,134.7 134.3,156.1 74.8,164.4 74.9,143 		"/>
	</g>
	<g>
		<polygon class="st0" points="134.3,113.2 134.3,134.7 74.9,143 74.9,121.6 		"/>
	</g>
	<g>
		<polygon class="st0" points="134.4,91.8 134.3,113.2 74.9,121.6 74.9,100.2 		"/>
	</g>
	<g>
		<polygon class="st0" points="74.8,164.4 35.5,143.1 35.6,121.6 74.9,143 		"/>
	</g>
	<g>
		<polygon class="st0" points="74.9,143 35.6,121.6 35.6,100.2 74.9,121.6 		"/>
	</g>
	<g>
		<polygon class="st0" points="74.9,121.6 35.6,100.2 35.6,78.8 74.9,100.2 		"/>
	</g>
	<g>
		<g>
			<defs>
				<polygon id="SVGID_1_" points="79.4,104.1 79.4,116.4 129.8,109.3 129.9,97 				"/>
			</defs>
			<clipPath id="SVGID_2_">
				<use xlink:href="#SVGID_1_"  style="overflow:visible;"/>
			</clipPath>
			<g class="st1">
				<g>
					<path class="st2" d="M78.9,121.5c-0.2,0-0.4-0.1-0.6-0.2c-0.5-0.3-0.6-0.9-0.2-1.4l16.3-23.1c0.3-0.5,0.9-0.6,1.4-0.2
						c0.5,0.3,0.6,0.9,0.2,1.4l-16.3,23.1C79.5,121.4,79.2,121.5,78.9,121.5z"/>
				</g>
				<g>
					<path class="st2" d="M83.4,121.5c-0.2,0-0.4-0.1-0.6-0.2c-0.5-0.3-0.6-0.9-0.2-1.4l16.3-23.1c0.3-0.5,0.9-0.6,1.4-0.2
						c0.5,0.3,0.6,0.9,0.2,1.4l-16.3,23.1C84,121.4,83.7,121.5,83.4,121.5z"/>
				</g>
				<g>
					<path class="st2" d="M87.9,121.5c-0.2,0-0.4-0.1-0.6-0.2c-0.5-0.3-0.6-0.9-0.2-1.4l16.3-23.1c0.3-0.5,0.9-0.6,1.4-0.2
						c0.5,0.3,0.6,0.9,0.2,1.4l-16.3,23.1C88.5,121.4,88.2,121.5,87.9,121.5z"/>
				</g>
				<g>
					<path class="st2" d="M92.4,121.5c-0.2,0-0.4-0.1-0.6-0.2c-0.5-0.3-0.6-0.9-0.2-1.4l16.3-23.1c0.3-0.5,0.9-0.6,1.4-0.2
						c0.5,0.3,0.6,0.9,0.2,1.4l-16.3,23.1C93.1,121.4,92.7,121.5,92.4,121.5z"/>
				</g>
				<g>
					<path class="st2" d="M96.9,121.5c-0.2,0-0.4-0.1-0.6-0.2c-0.5-0.3-0.6-0.9-0.2-1.4l16.3-23.1c0.3-0.5,0.9-0.6,1.4-0.2
						c0.5,0.3,0.6,0.9,0.2,1.4l-16.3,23.1C97.6,121.4,97.3,121.5,96.9,121.5z"/>
				</g>
				<g>
					<path class="st2" d="M101.5,121.5c-0.2,0-0.4-0.1-0.6-0.2c-0.5-0.3-0.6-0.9-0.2-1.4L117,96.8c0.3-0.5,0.9-0.6,1.4-0.2
						c0.5,0.3,0.6,0.9,0.2,1.4l-16.3,23.1C102.1,121.4,101.8,121.5,101.5,121.5z"/>
				</g>
				<g>
					<path class="st2" d="M106,121.5c-0.2,0-0.4-0.1-0.6-0.2c-0.5-0.3-0.6-0.9-0.2-1.4l16.3-23.1c0.3-0.5,0.9-0.6,1.4-0.2
						c0.5,0.3,0.6,0.9,0.2,1.4l-16.3,23.1C106.6,121.4,106.3,121.5,106,121.5z"/>
				</g>
				<g>
					<path class="st2" d="M110.5,121.5c-0.2,0-0.4-0.1-0.6-0.2c-0.5-0.3-0.6-0.9-0.2-1.4L126,96.8c0.3-0.5,0.9-0.6,1.4-0.2
						c0.5,0.3,0.6,0.9,0.2,1.4l-16.3,23.1C111.1,121.4,110.8,121.5,110.5,121.5z"/>
				</g>
			</g>
		</g>
	</g>
	<g>
		<g>
			<defs>
				<polygon id="SVGID_3_" points="79.4,125.5 79.4,137.8 129.8,130.7 129.9,118.4 				"/>
			</defs>
			<clipPath id="SVGID_4_">
				<use xlink:href="#SVGID_3_"  style="overflow:visible;"/>
			</clipPath>
			<g class="st3">
				<g>
					<path class="st2" d="M78.9,142.9c-0.2,0-0.4-0.1-0.6-0.2c-0.5-0.3-0.6-0.9-0.2-1.4l16.3-23.1c0.3-0.5,0.9-0.6,1.4-0.2
						c0.5,0.3,0.6,0.9,0.2,1.4l-16.3,23.1C79.5,142.7,79.2,142.9,78.9,142.9z"/>
				</g>
				<g>
					<path class="st2" d="M83.4,142.9c-0.2,0-0.4-0.1-0.6-0.2c-0.5-0.3-0.6-0.9-0.2-1.4l16.3-23.1c0.3-0.5,0.9-0.6,1.4-0.2
						c0.5,0.3,0.6,0.9,0.2,1.4l-16.3,23.1C84,142.7,83.7,142.9,83.4,142.9z"/>
				</g>
				<g>
					<path class="st2" d="M87.9,142.9c-0.2,0-0.4-0.1-0.6-0.2c-0.5-0.3-0.6-0.9-0.2-1.4l16.3-23.1c0.3-0.5,0.9-0.6,1.4-0.2
						c0.5,0.3,0.6,0.9,0.2,1.4l-16.3,23.1C88.5,142.7,88.2,142.9,87.9,142.9z"/>
				</g>
				<g>
					<path class="st2" d="M92.4,142.9c-0.2,0-0.4-0.1-0.6-0.2c-0.5-0.3-0.6-0.9-0.2-1.4l16.3-23.1c0.3-0.5,0.9-0.6,1.4-0.2
						c0.5,0.3,0.6,0.9,0.2,1.4l-16.3,23.1C93.1,142.7,92.7,142.9,92.4,142.9z"/>
				</g>
				<g>
					<path class="st2" d="M96.9,142.9c-0.2,0-0.4-0.1-0.6-0.2c-0.5-0.3-0.6-0.9-0.2-1.4l16.3-23.1c0.3-0.5,0.9-0.6,1.4-0.2
						c0.5,0.3,0.6,0.9,0.2,1.4l-16.3,23.1C97.6,142.7,97.3,142.9,96.9,142.9z"/>
				</g>
				<g>
					<path class="st2" d="M101.5,142.9c-0.2,0-0.4-0.1-0.6-0.2c-0.5-0.3-0.6-0.9-0.2-1.4l16.3-23.1c0.3-0.5,0.9-0.6,1.4-0.2
						c0.5,0.3,0.6,0.9,0.2,1.4l-16.3,23.1C102.1,142.7,101.8,142.9,101.5,142.9z"/>
				</g>
				<g>
					<path class="st2" d="M106,142.9c-0.2,0-0.4-0.1-0.6-0.2c-0.5-0.3-0.6-0.9-0.2-1.4l16.3-23.1c0.3-0.5,0.9-0.6,1.4-0.2
						c0.5,0.3,0.6,0.9,0.2,1.4l-16.3,23.1C106.6,142.7,106.3,142.9,106,142.9z"/>
				</g>
				<g>
					<path class="st2" d="M110.5,142.9c-0.2,0-0.4-0.1-0.6-0.2c-0.5-0.3-0.6-0.9-0.2-1.4l16.3-23.1c0.3-0.5,0.9-0.6,1.4-0.2
						c0.5,0.3,0.6,0.9,0.2,1.4l-16.3,23.1C111.1,142.7,110.8,142.9,110.5,142.9z"/>
				</g>
			</g>
		</g>
	</g>
	<g>
		<g>
			<defs>
				<polygon id="SVGID_5_" points="79.4,146.9 79.4,159.2 129.8,152.1 129.9,139.8 				"/>
			</defs>
			<clipPath id="SVGID_6_">
				<use xlink:href="#SVGID_5_"  style="overflow:visible;"/>
			</clipPath>
			<g class="st4">
				<g>
					<path class="st2" d="M78.9,164.3c-0.2,0-0.4-0.1-0.6-0.2c-0.5-0.3-0.6-0.9-0.2-1.4l16.3-23.1c0.3-0.5,0.9-0.6,1.4-0.2
						c0.5,0.3,0.6,0.9,0.2,1.4l-16.3,23.1C79.5,164.1,79.2,164.3,78.9,164.3z"/>
				</g>
				<g>
					<path class="st2" d="M83.4,164.3c-0.2,0-0.4-0.1-0.6-0.2c-0.5-0.3-0.6-0.9-0.2-1.4l16.3-23.1c0.3-0.5,0.9-0.6,1.4-0.2
						s0.6,0.9,0.2,1.4l-16.3,23.1C84,164.1,83.7,164.3,83.4,164.3z"/>
				</g>
				<g>
					<path class="st2" d="M87.9,164.3c-0.2,0-0.4-0.1-0.6-0.2c-0.5-0.3-0.6-0.9-0.2-1.4l16.3-23.1c0.3-0.5,0.9-0.6,1.4-0.2
						c0.5,0.3,0.6,0.9,0.2,1.4l-16.3,23.1C88.5,164.1,88.2,164.3,87.9,164.3z"/>
				</g>
				<g>
					<path class="st2" d="M92.4,164.3c-0.2,0-0.4-0.1-0.6-0.2c-0.5-0.3-0.6-0.9-0.2-1.4l16.3-23.1c0.3-0.5,0.9-0.6,1.4-0.2
						c0.5,0.3,0.6,0.9,0.2,1.4l-16.3,23.1C93.1,164.1,92.7,164.3,92.4,164.3z"/>
				</g>
				<g>
					<path class="st2" d="M96.9,164.3c-0.2,0-0.4-0.1-0.6-0.2c-0.5-0.3-0.6-0.9-0.2-1.4l16.3-23.1c0.3-0.5,0.9-0.6,1.4-0.2
						c0.5,0.3,0.6,0.9,0.2,1.4l-16.3,23.1C97.6,164.1,97.3,164.3,96.9,164.3z"/>
				</g>
				<g>
					<path class="st2" d="M101.5,164.3c-0.2,0-0.4-0.1-0.6-0.2c-0.5-0.3-0.6-0.9-0.2-1.4l16.3-23.1c0.3-0.5,0.9-0.6,1.4-0.2
						c0.5,0.3,0.6,0.9,0.2,1.4l-16.3,23.1C102.1,164.1,101.8,164.3,101.5,164.3z"/>
				</g>
				<g>
					<path class="st2" d="M106,164.3c-0.2,0-0.4-0.1-0.6-0.2c-0.5-0.3-0.6-0.9-0.2-1.4l16.3-23.1c0.3-0.5,0.9-0.6,1.4-0.2
						c0.5,0.3,0.6,0.9,0.2,1.4l-16.3,23.1C106.6,164.1,106.3,164.3,106,164.3z"/>
				</g>
				<g>
					<path class="st2" d="M110.5,164.3c-0.2,0-0.4-0.1-0.6-0.2c-0.5-0.3-0.6-0.9-0.2-1.4l16.3-23.1c0.3-0.5,0.9-0.6,1.4-0.2
						c0.5,0.3,0.6,0.9,0.2,1.4l-16.3,23.1C111.1,164.1,110.8,164.3,110.5,164.3z"/>
				</g>
			</g>
		</g>
	</g>
	<g>
		<g>
			<polygon class="st5" points="151.4,103.9 151.3,168.1 91.8,176.5 91.9,112.2 			"/>
		</g>
		<g>
			<path class="st6" d="M118.3,125.5c-0.9-0.7-1.4-1.7-1.4-3s0.5-2.4,1.4-3.3c0.9-1,2.1-1.5,3.5-1.7s2.6,0.1,3.5,0.8
				c0.9,0.7,1.4,1.7,1.4,2.9c0,1.3-0.5,2.5-1.4,3.5s-2.1,1.6-3.5,1.8C120.4,126.6,119.3,126.3,118.3,125.5z M119.5,131.9l4.2-0.5
				c1-0.1,1.9,0.7,1.9,1.7l0.1,28.3c0,0.9-0.7,1.6-1.5,1.7l-4.2,0.5c-1,0.1-1.9-0.7-1.9-1.7l-0.1-28.3
				C118,132.8,118.6,132,119.5,131.9z"/>
		</g>
	</g>
	<g>
		
			<ellipse transform="matrix(0.7759 -0.6309 0.6309 0.7759 -69.0858 129.9865)" class="st7" cx="148.4" cy="162.2" rx="16.8" ry="14.9"/>
		<g>
			<path class="st6" d="M157.8,156.7c0.2,0.2,0.3,0.3,0.3,0.6c0,0.2-0.1,0.4-0.3,0.5l-11.5,12.4c-0.2,0.2-0.4,0.3-0.6,0.3
				c-0.2,0-0.4,0-0.5-0.2l-6.1-5.2c-0.2-0.2-0.3-0.3-0.3-0.6c0-0.2,0.1-0.4,0.3-0.5l1.5-1.7c0.1-0.1,0.3-0.2,0.5-0.3
				c0.2,0,0.4,0,0.6,0.1l4,3.5l9.5-10.2c0.1-0.1,0.3-0.2,0.5-0.3c0.2,0,0.4,0,0.6,0.2L157.8,156.7z"/>
		</g>
	</g>
	<polygon class="st2" points="59.9,66.5 70.2,65 66.4,70.8 	"/>
	<polyline class="st0" points="59.9,22.1 61.4,28.3 68.3,27.8 	"/>
	<g>
		<path class="st8" d="M53.1,38.4c0.3,0.4,0.6,0.9,0.9,1.3c2.8,3.7,4.3,4.7,4.7,8.9"/>
		<path class="st8" d="M57.6,39.4c2.8,3.7,4.3,4.5,4.7,8.7"/>
		<path class="st8" d="M59.5,36.4c0.3,0.8,0.8,1.7,1.6,2.7c2.8,3.7,4.3,4.5,4.7,8.7"/>
		<path class="st8" d="M66.3,40.9c1.7,2.2,2.7,3.2,3,6.5"/>
		<path class="st8" d="M48.2,33.4c0,0-0.5,3.1,2.3,6.7c2.1,2.7,3,4.3,4.2,6.3c0.5,0.9,1.1,2.7,0.7,5.5l15.8-2.1"/>
	</g>
	<g>
		<ellipse transform="matrix(0.1578 -0.9875 0.9875 0.1578 -8.0173 104.2177)" class="st6" cx="57.1" cy="56.8" rx="2" ry="1.7"/>
		<path class="st6" d="M64.5,55.9l1.6,0.3c0.2-1.1-0.4-2.1-1.3-2.2c-0.9-0.1-1.8,0.6-1.9,1.7c-0.2,1.1,0.4,2.1,1.3,2.2
			c0,0,0,0,0.1,0L64.5,55.9z"/>
		<path class="st6" d="M71.5,54.8l1.1-1.5c-0.2-0.2-0.5-0.4-0.8-0.5c-0.9-0.1-1.8,0.6-1.9,1.7c-0.2,1.1,0.4,2.1,1.3,2.2
			c0,0,0,0,0.1,0L71.5,54.8z"/>
	</g>
</g>
</svg>
