<?xml version="1.0" encoding="utf-8"?>
<!-- Generator: Adobe Illustrator 22.0.1, SVG Export Plug-In . SVG Version: 6.00 Build 0)  -->
<svg version="1.1" xmlns="http://www.w3.org/2000/svg" xmlns:xlink="http://www.w3.org/1999/xlink" x="0px" y="0px"
	 viewBox="0 0 600 600" style="enable-background:new 0 0 600 600;" xml:space="preserve">
<style type="text/css">
	.st0{display:none;}
	.st1{display:inline;fill:#FEE6D5;}
	.st2{fill:#FEE6D5;}
	.st3{fill:#FEE5D5;}
	.st4{fill:none;stroke:#FEE5D5;stroke-width:3;stroke-miterlimit:10;stroke-dasharray:10,1;}
	.st5{fill:#FFFFFF;}
	.st6{fill:none;stroke:#000000;stroke-width:2;stroke-miterlimit:10;}
	.st7{fill:#F36E21;}
	.st8{font-family:'Asap-Regular';}
	.st9{font-size:19.311px;}
	.st10{font-size:11.53px;}
	.st11{font-size:8.4319px;}
	.st12{font-family:'Asap-Bold';}
	.st13{font-size:16.8638px;}
	.st14{fill:#010101;}
	.st15{fill:#FFFFFF;stroke:#010101;stroke-miterlimit:10;}
	.st16{stroke:#FFFFFF;stroke-miterlimit:10;}
	.st17{fill:#FFFFFF;stroke:#000000;stroke-width:0.5;stroke-miterlimit:10;}
	.st18{fill:#D1D3D4;}
	.st19{font-family:'Asap-MediumItalic';}
	.st20{font-size:7.8602px;}
	.st21{fill:none;stroke:#010101;stroke-width:2;stroke-miterlimit:10;}
	.st22{fill:none;stroke:#010101;stroke-width:2;stroke-miterlimit:10;stroke-dasharray:8.5711,0.8571;}
	.st23{clip-path:url(#SVGID_2_);}
	.st24{fill:#F7E5D0;}
	.st25{fill:none;stroke:#F36E24;stroke-width:4;stroke-miterlimit:10;}
	.st26{fill:none;stroke:#F36E24;stroke-miterlimit:10;}
</style>
<g id="Layer_2" class="st0">
	<rect class="st1" width="600" height="600"/>
</g>
<g id="grafico">
	<g>
		<polygon class="st2" points="135,118.9 125.3,107.9 125.3,305.3 144.8,305.3 144.8,107.8 		"/>
		<circle class="st2" cx="418.4" cy="232.4" r="77"/>
		<circle class="st2" cx="418.4" cy="407.5" r="37.9"/>
		<circle class="st2" cx="135" cy="208.9" r="35.9"/>
		<circle class="st2" cx="135" cy="482.3" r="58"/>
	</g>
	<g>
		<g>
			<path class="st3" d="M386.6,108.3c0,18.3,0,36.6,0,54.9c0,4.8,7.5,4.8,7.5,0c0-18.3,0-36.6,0-54.9
				C394.1,103.5,386.6,103.5,386.6,108.3L386.6,108.3z"/>
		</g>
	</g>
	<g>
		<g>
			<path class="st3" d="M443.5,108.3c0,18.3,0,36.6,0,54.9c0,4.8,7.5,4.8,7.5,0c0-18.3,0-36.6,0-54.9
				C451,103.5,443.5,103.5,443.5,108.3L443.5,108.3z"/>
		</g>
	</g>
	<polygon class="st2" points="410.1,108.3 418.4,99.9 426.8,108.3 	"/>
	<polygon class="st2" points="382,108.3 390.4,99.9 398.7,108.3 	"/>
	<polygon class="st2" points="438.9,108.3 447.2,99.9 455.6,108.3 	"/>
	<g>
		<path class="st3" d="M345.1,442.2c-1.5-1.8-2.3-4.1-2.3-6.9v-14c0-2.8-0.3-4.9-0.9-6.3c-0.6-1.4-1.6-2.5-3-3.1
			c-0.8-0.5-1.4-1.1-1.8-1.7c-0.4-0.6-0.6-1.4-0.6-2.5v-1c0-1.1,0.2-1.9,0.6-2.5c0.4-0.6,1-1.2,1.8-1.7c1.4-0.6,2.5-1.6,3-3.1
			c0.6-1.4,0.9-3.5,0.9-6.3v-14c0-2.8,0.8-5.1,2.3-6.9c1.5-1.8,3.5-2.7,5.9-2.7h3.2c0.9,0,1.5,0.3,1.9,0.8c0.4,0.5,0.6,1.4,0.6,2.5
			v1.2c0,2.2-0.7,3.3-2.2,3.3h0.2c-0.9,0-1.5,0.2-1.9,0.7c-0.4,0.4-0.5,1.2-0.5,2.3v14.1c0,3-0.5,5.7-1.5,7.9
			c-1,2.2-2.4,3.8-4.2,4.9c1.8,1.1,3.2,2.7,4.2,4.8c1,2.2,1.5,4.8,1.5,7.9v14.1c0,2,0.7,3,2,3h0.1c0.8,0.1,1.4,0.3,1.7,0.9
			c0.4,0.5,0.6,1.3,0.6,2.5v1.2c0,1.2-0.2,2-0.6,2.5c-0.4,0.5-1,0.8-1.9,0.8h-3.2C348.6,444.9,346.7,444,345.1,442.2z"/>
		<path class="st3" d="M479.7,444.1c-0.4-0.5-0.6-1.4-0.6-2.5v-1.2c0-1.2,0.2-2,0.5-2.5c0.4-0.5,1-0.8,1.8-0.8h0.1c1.3,0,2-1,2-3
			V420c0-3.1,0.5-5.7,1.5-7.9c1-2.2,2.4-3.8,4.2-4.8c-1.8-1.1-3.2-2.7-4.2-4.9c-1-2.2-1.5-4.8-1.5-7.9v-14.1c0-1.1-0.2-1.9-0.5-2.3
			c-0.3-0.4-0.9-0.7-1.7-0.7h-0.1c-1.4,0-2.1-1.1-2.1-3.3v-1.2c0-1.2,0.2-2,0.6-2.5c0.4-0.5,1-0.8,1.9-0.8h3.2
			c2.4,0,4.4,0.9,5.9,2.7c1.5,1.8,2.3,4.1,2.3,6.9v14c0,2.8,0.3,4.9,0.9,6.3c0.6,1.4,1.6,2.5,3,3.1c0.8,0.5,1.4,1.1,1.8,1.7
			c0.4,0.6,0.6,1.4,0.6,2.5v1c0,1.1-0.2,1.9-0.6,2.5c-0.4,0.6-1,1.2-1.8,1.7c-1.4,0.6-2.5,1.6-3,3.1c-0.6,1.4-0.9,3.5-0.9,6.3v14
			c0,2.8-0.8,5.1-2.3,6.9c-1.5,1.8-3.5,2.7-5.9,2.7h-3.2C480.7,444.9,480.1,444.6,479.7,444.1z"/>
	</g>
	<path class="st4" d="M234.6,425.2c-26.5,0-20,47-52.1,47"/>
	<g>
		<g>
			<path class="st3" d="M135.1,491.5c57.7,0,115.5,0.7,173.2-0.5c37.6-0.7,79.7-9.1,100-44.3c10.4-18,13.7-39.4,14.2-59.9
				c0.5-20.4,0.1-40.8,0-61.2c0-45.8-0.1-91.6-0.2-137.4c0-27.2,0.6-54.5-0.2-81.7c0-0.4,0-0.8,0-1.3c0-4.8-7.5-4.8-7.5,0
				c0,21.7,0.1,43.4,0.1,65.1c0.1,44.3,0.2,88.6,0.2,132.9c0,20.9,0,41.7,0.1,62.6c0,20.8,0.2,41.7-6.5,61.7
				c-5.5,16.5-15.9,30.8-30.8,39.9c-16.7,10.2-36.6,14-55.8,15.4c-26,1.9-52.4,0.7-78.4,0.8c-27.7,0.1-55.4,0.2-83.2,0.3
				c-8.5,0-16.9,0-25.4,0C130.2,484,130.2,491.5,135.1,491.5L135.1,491.5z"/>
		</g>
	</g>
	<rect x="356.3" y="169" class="st5" width="124.3" height="83.6"/>
	<rect x="132" y="340.4" class="st2" width="6.2" height="170"/>
	<g>
		<path class="st6" d="M135.6,52.3c8.5,0,16.4,1.2,16.4,2.5s-7.8,2.4-16.4,2.4c-8.5,0-16.2-1.1-16.2-2.4S127.1,52.3,135.6,52.3z"/>
		<path class="st6" d="M152,95.8c0,1.3-7.8,2.4-16.4,2.4c-8.5,0-16.2-1.1-16.2-2.4"/>
		<line class="st6" x1="119.4" y1="95.8" x2="119.4" y2="54.8"/>
		<line class="st6" x1="152" y1="54.8" x2="152" y2="95.8"/>
	</g>
	<g>
		<path class="st7" d="M537.8,261.9H299c-1.7,0-3.1,1.4-3.1,3.1v22.6c0,1.7,1.4,3.1,3.1,3.1h238.8c1.7,0,3.1-1.4,3.1-3.1V265
			C540.9,263.3,539.6,261.9,537.8,261.9z"/>
		<g>
			<text transform="matrix(1 0 0 1 306.0854 283.1829)" class="st5 st8 st9">ANGULAR + OPEN LAYERS</text>
		</g>
	</g>
	<g>
		<path d="M168.7,67.5h-67.5c-1.2,0-2.1,1-2.1,2.1v15.7c0,1.2,1,2.1,2.1,2.1h67.5c1.2,0,2.1-1,2.1-2.1V69.7
			C170.9,68.5,169.9,67.5,168.7,67.5z"/>
		<g>
			<text transform="matrix(1 0 0 1 105.4563 82.0664)" class="st5 st8 st10">TWITER API</text>
		</g>
	</g>
	<g>
		<path class="st7" d="M470.8,390.1H366.1c-1.8,0-3.3,1.5-3.3,3.3v26.9c0,1.8,1.5,3.3,3.3,3.3h104.6c1.8,0,3.3-1.5,3.3-3.3v-26.9
			C474,391.6,472.6,390.1,470.8,390.1z"/>
		<text transform="matrix(1 0 0 1 375.6328 414.0721)" class="st5 st8 st9">SWAGGER</text>
	</g>
	<g>
		<circle class="st2" cx="264.1" cy="425.2" r="29.5"/>
		<path class="st7" d="M293.4,434.7h-58.6c-1.5,0-2.6,1.2-2.6,2.6v9.3c0,1.5,1.2,2.6,2.6,2.6h58.6c1.5,0,2.6-1.2,2.6-2.6v-9.3
			C296,435.8,294.8,434.7,293.4,434.7z"/>
		<text transform="matrix(1 0 0 1 238.4328 445.1141)"><tspan x="0" y="0" class="st5 st8 st11">SCIKIT-LEAR</tspan><tspan x="45.4" y="0" class="st5 st8 st11">N</tspan></text>
		<text transform="matrix(1 0 0 1 241.9235 418.0468)"><tspan x="0" y="0" class="st8 st11">SENTIMENT</tspan><tspan x="4.1" y="10.1" class="st8 st11">ANALISYS</tspan></text>
	</g>
	<g>
		<text transform="matrix(0 1 -1 0 246.6579 458.9618)" class="st12 st13">:)</text>
		<text transform="matrix(0 0.9873 -1 0 271.6096 458.955)" class="st12 st13">:(</text>
	</g>
	<path class="st7" d="M418.4,39c-14.8,0-26.9,12-26.9,26.9s12,26.9,26.9,26.9c14.8,0,26.9-12,26.9-26.9S433.3,39,418.4,39z
		 M435.8,80c-0.6-1.3-1.8-2.2-4.2-2.8c-5.1-1.2-9.9-2.2-7.6-6.6c7-13.3,1.9-20.4-5.6-20.4c-7.6,0-12.6,7.4-5.6,20.4
		c2.4,4.4-2.6,5.4-7.6,6.6c-2.4,0.6-3.6,1.5-4.2,2.8c-3.1-3.9-5-8.8-5-14.1c0-12.4,10.1-22.4,22.4-22.4c12.4,0,22.4,10.1,22.4,22.4
		C440.9,71.2,439,76.1,435.8,80z"/>
	<path class="st14" d="M170.6,312c3.6-7.9-25.6-9.3-35.6-9.3c-9.6,0-39.2,1.4-35.6,9.3c1.7,3.6,29.1,42.1,29.1,42.1v17.1l13.1,9.8
		v-26.9C141.5,354.2,168.9,315.6,170.6,312z M135,309.1c13.8,0,26.6,1.9,26.6,4s-12.7,3.8-26.6,3.8c-13.8,0-26.2-1.7-26.2-3.8
		S121.2,309.1,135,309.1z"/>
	<g>
		<path class="st14" d="M111.2,169.2c-0.4,0.2-0.8,0.3-1.3,0.4c0.5-0.3,0.8-0.7,1-1.3c-0.4,0.3-0.9,0.4-1.4,0.6
			c-0.4-0.4-1-0.7-1.7-0.7c-1.5,0-2.5,1.4-2.2,2.8c-1.9-0.1-3.6-1-4.7-2.4c-0.6,1-0.3,2.4,0.7,3c-0.4,0-0.7-0.1-1-0.3
			c0,1.1,0.7,2,1.8,2.3c-0.3,0.1-0.7,0.1-1,0c0.3,0.9,1.1,1.6,2.1,1.6c-1,0.7-2.2,1.1-3.4,0.9c1,0.6,2.2,1,3.5,1
			c4.2,0,6.6-3.6,6.5-6.8C110.6,170,110.9,169.6,111.2,169.2z"/>
		<path class="st14" d="M154.2,170.2c-0.3,0.1-0.5,0.2-0.8,0.2c0.3-0.2,0.5-0.5,0.6-0.8c-0.3,0.2-0.6,0.3-0.9,0.4
			c-0.3-0.3-0.6-0.5-1.1-0.5c-0.9,0-1.6,0.9-1.4,1.8c-1.2-0.1-2.3-0.6-3-1.5c-0.4,0.6-0.2,1.5,0.4,1.9c-0.2,0-0.5-0.1-0.7-0.2
			c0,0.7,0.5,1.3,1.2,1.4c-0.2,0.1-0.4,0.1-0.7,0c0.2,0.6,0.7,1,1.3,1c-0.6,0.5-1.4,0.7-2.1,0.6c0.6,0.4,1.4,0.6,2.2,0.6
			c2.7,0,4.2-2.3,4.1-4.3C153.8,170.8,154,170.5,154.2,170.2z"/>
		<path class="st14" d="M169.5,168.1c-0.3,0.1-0.5,0.2-0.8,0.2c0.3-0.2,0.5-0.5,0.6-0.8c-0.3,0.2-0.6,0.3-0.9,0.4
			c-0.3-0.3-0.6-0.5-1.1-0.5c-0.9,0-1.6,0.9-1.4,1.8c-1.2-0.1-2.3-0.6-3-1.5c-0.4,0.6-0.2,1.5,0.4,1.9c-0.2,0-0.5-0.1-0.7-0.2
			c0,0.7,0.5,1.3,1.2,1.4c-0.2,0.1-0.4,0.1-0.7,0c0.2,0.6,0.7,1,1.3,1c-0.6,0.5-1.4,0.7-2.1,0.6c0.6,0.4,1.4,0.6,2.2,0.6
			c2.7,0,4.2-2.3,4.1-4.3C169.1,168.7,169.4,168.4,169.5,168.1z"/>
		<path class="st14" d="M135.6,185.4c-0.4,0.2-0.8,0.3-1.3,0.4c0.5-0.3,0.8-0.7,1-1.3c-0.4,0.3-0.9,0.4-1.4,0.6
			c-0.4-0.4-1-0.7-1.7-0.7c-1.5,0-2.5,1.4-2.2,2.8c-1.9-0.1-3.6-1-4.7-2.4c-0.6,1-0.3,2.4,0.7,3c-0.4,0-0.7-0.1-1-0.3
			c0,1.1,0.7,2,1.8,2.3c-0.3,0.1-0.7,0.1-1,0c0.3,0.9,1.1,1.6,2.1,1.6c-1,0.7-2.2,1.1-3.4,0.9c1,0.6,2.2,1,3.5,1
			c4.2,0,6.6-3.6,6.5-6.8C134.9,186.3,135.3,185.9,135.6,185.4z"/>
		<path class="st14" d="M126.6,163.4c-0.3,0.1-0.6,0.2-0.9,0.2c0.3-0.2,0.6-0.5,0.7-0.9c-0.3,0.2-0.6,0.3-1,0.4
			c-0.3-0.3-0.7-0.5-1.1-0.5c-1,0-1.7,0.9-1.5,1.9c-1.3-0.1-2.4-0.7-3.2-1.6c-0.4,0.7-0.2,1.6,0.5,2.1c-0.3,0-0.5-0.1-0.7-0.2
			c0,0.7,0.5,1.4,1.2,1.5c-0.2,0.1-0.5,0.1-0.7,0c0.2,0.6,0.8,1.1,1.4,1.1c-0.6,0.5-1.5,0.7-2.3,0.6c0.7,0.4,1.5,0.7,2.4,0.7
			c2.9,0,4.5-2.4,4.4-4.6C126.1,164,126.3,163.8,126.6,163.4z"/>
		<path class="st14" d="M119.6,183.7c-0.3,0.1-0.7,0.3-1.1,0.3c0.4-0.2,0.7-0.6,0.8-1c-0.4,0.2-0.8,0.4-1.2,0.5
			c-0.3-0.4-0.8-0.6-1.4-0.6c-1.2,0-2.1,1.1-1.8,2.3c-1.5-0.1-2.9-0.8-3.8-2c-0.5,0.8-0.3,1.9,0.6,2.5c-0.3,0-0.6-0.1-0.8-0.2
			c0,0.9,0.6,1.7,1.5,1.9c-0.3,0.1-0.5,0.1-0.8,0c0.2,0.7,0.9,1.3,1.7,1.3c-0.8,0.6-1.8,0.9-2.8,0.8c0.8,0.5,1.8,0.8,2.9,0.8
			c3.5,0,5.4-2.9,5.3-5.6C119,184.4,119.3,184.1,119.6,183.7z"/>
		<path class="st14" d="M163.3,177.9c-0.3,0.1-0.7,0.3-1.1,0.3c0.4-0.2,0.7-0.6,0.8-1c-0.4,0.2-0.8,0.4-1.2,0.5
			c-0.3-0.4-0.8-0.6-1.4-0.6c-1.2,0-2.1,1.1-1.8,2.3c-1.5-0.1-2.9-0.8-3.8-2c-0.5,0.8-0.3,1.9,0.6,2.5c-0.3,0-0.6-0.1-0.8-0.2
			c0,0.9,0.6,1.7,1.5,1.9c-0.3,0.1-0.5,0.1-0.8,0c0.2,0.7,0.9,1.3,1.7,1.3c-0.8,0.6-1.8,0.9-2.8,0.8c0.8,0.5,1.8,0.8,2.9,0.8
			c3.5,0,5.4-2.9,5.3-5.6C162.7,178.6,163,178.3,163.3,177.9z"/>
		<path class="st14" d="M140.1,171.4c-0.4,0.2-0.8,0.3-1.3,0.4c0.5-0.3,0.8-0.7,1-1.3c-0.4,0.3-0.9,0.4-1.4,0.6
			c-0.4-0.4-1-0.7-1.7-0.7c-1.5,0-2.5,1.4-2.2,2.8c-1.9-0.1-3.6-1-4.7-2.4c-0.6,1-0.3,2.4,0.7,3c-0.4,0-0.7-0.1-1-0.3
			c0,1.1,0.7,2,1.8,2.3c-0.3,0.1-0.7,0.1-1,0c0.3,0.9,1.1,1.6,2.1,1.6c-1,0.7-2.2,1.1-3.4,0.9c1,0.6,2.2,1,3.5,1
			c4.2,0,6.6-3.6,6.5-6.8C139.4,172.2,139.8,171.8,140.1,171.4z"/>
		<path class="st14" d="M149.1,183.5c-0.3,0.1-0.6,0.2-0.9,0.2c0.3-0.2,0.6-0.5,0.7-0.8c-0.3,0.2-0.6,0.3-1,0.4
			c-0.3-0.3-0.7-0.5-1.1-0.5c-1,0-1.7,0.9-1.5,1.9c-1.3-0.1-2.4-0.7-3.1-1.6c-0.4,0.7-0.2,1.6,0.5,2c-0.2,0-0.5-0.1-0.7-0.2
			c0,0.7,0.5,1.4,1.2,1.5c-0.2,0.1-0.4,0.1-0.7,0c0.2,0.6,0.8,1,1.4,1.1c-0.6,0.5-1.4,0.7-2.3,0.6c0.7,0.4,1.5,0.7,2.3,0.7
			c2.8,0,4.4-2.4,4.3-4.5C148.6,184.1,148.9,183.8,149.1,183.5z"/>
		<path class="st14" d="M119.6,173.1c-0.2,0.1-0.4,0.1-0.6,0.2c0.2-0.1,0.4-0.4,0.5-0.6c-0.2,0.1-0.5,0.2-0.7,0.3
			c-0.2-0.2-0.5-0.4-0.8-0.4c-0.7,0-1.3,0.7-1.1,1.4c-0.9,0-1.8-0.5-2.3-1.2c-0.3,0.5-0.2,1.2,0.3,1.5c-0.2,0-0.4-0.1-0.5-0.1
			c0,0.5,0.4,1,0.9,1.1c-0.2,0-0.3,0.1-0.5,0c0.1,0.4,0.6,0.8,1,0.8c-0.5,0.4-1.1,0.5-1.7,0.5c0.5,0.3,1.1,0.5,1.7,0.5
			c2.1,0,3.2-1.8,3.2-3.3C119.2,173.5,119.4,173.3,119.6,173.1z"/>
		<path class="st14" d="M161,161.9c-0.2,0.1-0.4,0.1-0.6,0.2c0.2-0.1,0.4-0.4,0.5-0.6c-0.2,0.1-0.5,0.2-0.7,0.3
			c-0.2-0.2-0.5-0.4-0.8-0.4c-0.7,0-1.3,0.7-1.1,1.4c-0.9,0-1.8-0.5-2.3-1.2c-0.3,0.5-0.2,1.2,0.3,1.5c-0.2,0-0.4-0.1-0.5-0.1
			c0,0.5,0.4,1,0.9,1.1c-0.2,0-0.3,0.1-0.5,0c0.1,0.4,0.6,0.8,1,0.8c-0.5,0.4-1.1,0.5-1.7,0.5c0.5,0.3,1.1,0.5,1.7,0.5
			c2.1,0,3.2-1.8,3.2-3.3C160.6,162.3,160.8,162.1,161,161.9z"/>
		<path class="st14" d="M143,160.3c-0.3,0.1-0.6,0.2-0.9,0.3c0.3-0.2,0.6-0.5,0.7-0.9c-0.3,0.2-0.7,0.3-1,0.4
			c-0.3-0.3-0.7-0.5-1.2-0.5c-1,0-1.8,1-1.6,2c-1.3-0.1-2.5-0.7-3.3-1.7c-0.4,0.7-0.2,1.7,0.5,2.2c-0.3,0-0.5-0.1-0.7-0.2
			c0,0.7,0.5,1.4,1.3,1.6c-0.2,0.1-0.5,0.1-0.7,0c0.2,0.6,0.8,1.1,1.5,1.1c-0.7,0.5-1.5,0.8-2.4,0.7c0.7,0.5,1.6,0.7,2.5,0.7
			c3,0,4.7-2.5,4.6-4.8C142.5,160.9,142.8,160.6,143,160.3z"/>
	</g>
	<g>
		<path class="st14" d="M112.5,227.2c-0.4,0.2-0.8,0.3-1.3,0.4c0.5-0.3,0.8-0.7,1-1.3c-0.4,0.3-0.9,0.4-1.4,0.6
			c-0.4-0.4-1-0.7-1.7-0.7c-1.5,0-2.5,1.4-2.2,2.8c-1.9-0.1-3.6-1-4.7-2.4c-0.6,1-0.3,2.4,0.7,3c-0.4,0-0.7-0.1-1-0.3
			c0,1.1,0.7,2,1.8,2.3c-0.3,0.1-0.7,0.1-1,0c0.3,0.9,1.1,1.6,2.1,1.6c-1,0.7-2.2,1.1-3.4,0.9c1,0.6,2.2,1,3.5,1
			c4.2,0,6.6-3.6,6.5-6.8C111.9,228,112.2,227.6,112.5,227.2z"/>
		<path class="st14" d="M128.1,239.7c-0.3,0.1-0.5,0.2-0.8,0.2c0.3-0.2,0.5-0.5,0.6-0.8c-0.3,0.2-0.6,0.3-0.9,0.4
			c-0.3-0.3-0.6-0.5-1.1-0.5c-0.9,0-1.6,0.9-1.4,1.8c-1.2-0.1-2.3-0.6-3-1.5c-0.4,0.6-0.2,1.5,0.4,1.9c-0.2,0-0.5-0.1-0.7-0.2
			c0,0.7,0.5,1.3,1.2,1.4c-0.2,0.1-0.4,0.1-0.7,0c0.2,0.6,0.7,1,1.3,1c-0.6,0.5-1.4,0.7-2.1,0.6c0.6,0.4,1.4,0.6,2.2,0.6
			c2.7,0,4.2-2.3,4.1-4.3C127.7,240.2,127.9,240,128.1,239.7z"/>
		<path class="st14" d="M137.6,239.7c-0.3,0.1-0.5,0.2-0.8,0.2c0.3-0.2,0.5-0.5,0.6-0.8c-0.3,0.2-0.6,0.3-0.9,0.4
			c-0.3-0.3-0.6-0.5-1.1-0.5c-0.9,0-1.6,0.9-1.4,1.8c-1.2-0.1-2.3-0.6-3-1.5c-0.4,0.6-0.2,1.5,0.4,1.9c-0.2,0-0.5-0.1-0.7-0.2
			c0,0.7,0.5,1.3,1.2,1.4c-0.2,0.1-0.4,0.1-0.7,0c0.2,0.6,0.7,1,1.3,1c-0.6,0.5-1.4,0.7-2.1,0.6c0.6,0.4,1.4,0.6,2.2,0.6
			c2.7,0,4.2-2.3,4.1-4.3C137.2,240.2,137.4,240,137.6,239.7z"/>
		<path class="st14" d="M140,227.2c-0.4,0.2-0.8,0.3-1.3,0.4c0.5-0.3,0.8-0.7,1-1.3c-0.4,0.3-0.9,0.4-1.4,0.6
			c-0.4-0.4-1-0.7-1.7-0.7c-1.5,0-2.5,1.4-2.2,2.8c-1.9-0.1-3.6-1-4.7-2.4c-0.6,1-0.3,2.4,0.7,3c-0.4,0-0.7-0.1-1-0.3
			c0,1.1,0.7,2,1.8,2.3c-0.3,0.1-0.7,0.1-1,0c0.3,0.9,1.1,1.6,2.1,1.6c-1,0.7-2.2,1.1-3.4,0.9c1,0.6,2.2,1,3.5,1
			c4.2,0,6.6-3.6,6.5-6.8C139.3,228,139.7,227.6,140,227.2z"/>
		<path class="st14" d="M147.5,239.5c-0.3,0.1-0.6,0.2-0.9,0.2c0.3-0.2,0.6-0.5,0.7-0.9c-0.3,0.2-0.6,0.3-1,0.4
			c-0.3-0.3-0.7-0.5-1.1-0.5c-1,0-1.7,0.9-1.5,1.9c-1.3-0.1-2.4-0.7-3.2-1.6c-0.4,0.7-0.2,1.6,0.5,2.1c-0.3,0-0.5-0.1-0.7-0.2
			c0,0.7,0.5,1.4,1.2,1.5c-0.2,0.1-0.5,0.1-0.7,0c0.2,0.6,0.8,1.1,1.4,1.1c-0.6,0.5-1.5,0.7-2.3,0.6c0.7,0.4,1.5,0.7,2.4,0.7
			c2.9,0,4.5-2.4,4.4-4.6C147,240.1,147.2,239.8,147.5,239.5z"/>
		<path class="st14" d="M164.3,228.5c-0.3,0.1-0.7,0.3-1.1,0.3c0.4-0.2,0.7-0.6,0.8-1c-0.4,0.2-0.8,0.4-1.2,0.5
			c-0.3-0.4-0.8-0.6-1.4-0.6c-1.2,0-2.1,1.1-1.8,2.3c-1.5-0.1-2.9-0.8-3.8-2c-0.5,0.8-0.3,1.9,0.6,2.5c-0.3,0-0.6-0.1-0.8-0.2
			c0,0.9,0.6,1.7,1.5,1.9c-0.3,0.1-0.5,0.1-0.8,0c0.2,0.7,0.9,1.3,1.7,1.3c-0.8,0.6-1.8,0.9-2.8,0.8c0.8,0.5,1.8,0.8,2.9,0.8
			c3.5,0,5.4-2.9,5.3-5.6C163.7,229.3,164,228.9,164.3,228.5z"/>
		<path class="st14" d="M152.3,228.5c-0.3,0.1-0.7,0.3-1.1,0.3c0.4-0.2,0.7-0.6,0.8-1c-0.4,0.2-0.8,0.4-1.2,0.5
			c-0.3-0.4-0.8-0.6-1.4-0.6c-1.2,0-2.1,1.1-1.8,2.3c-1.5-0.1-2.9-0.8-3.8-2c-0.5,0.8-0.3,1.9,0.6,2.5c-0.3,0-0.6-0.1-0.8-0.2
			c0,0.9,0.6,1.7,1.5,1.9c-0.3,0.1-0.5,0.1-0.8,0c0.2,0.7,0.9,1.3,1.7,1.3c-0.8,0.6-1.8,0.9-2.8,0.8c0.8,0.5,1.8,0.8,2.9,0.8
			c3.5,0,5.4-2.9,5.3-5.6C151.7,229.3,152,228.9,152.3,228.5z"/>
		<path class="st14" d="M126.7,227.2c-0.4,0.2-0.8,0.3-1.3,0.4c0.5-0.3,0.8-0.7,1-1.3c-0.4,0.3-0.9,0.4-1.4,0.6
			c-0.4-0.4-1-0.7-1.7-0.7c-1.5,0-2.5,1.4-2.2,2.8c-1.9-0.1-3.6-1-4.7-2.4c-0.6,1-0.3,2.4,0.7,3c-0.4,0-0.7-0.1-1-0.3
			c0,1.1,0.7,2,1.8,2.3c-0.3,0.1-0.7,0.1-1,0c0.3,0.9,1.1,1.6,2.1,1.6c-1,0.7-2.2,1.1-3.4,0.9c1,0.6,2.2,1,3.5,1
			c4.2,0,6.6-3.6,6.5-6.8C126,228,126.4,227.6,126.7,227.2z"/>
		<path class="st14" d="M118.6,239.5c-0.3,0.1-0.6,0.2-0.9,0.2c0.3-0.2,0.6-0.5,0.7-0.8c-0.3,0.2-0.6,0.3-1,0.4
			c-0.3-0.3-0.7-0.5-1.1-0.5c-1,0-1.7,0.9-1.5,1.9c-1.3-0.1-2.4-0.7-3.1-1.6c-0.4,0.7-0.2,1.6,0.5,2c-0.2,0-0.5-0.1-0.7-0.2
			c0,0.7,0.5,1.4,1.2,1.5c-0.2,0.1-0.4,0.1-0.7,0c0.2,0.6,0.8,1,1.4,1.1c-0.6,0.5-1.4,0.7-2.3,0.6c0.7,0.4,1.5,0.7,2.3,0.7
			c2.8,0,4.4-2.4,4.3-4.5C118.1,240.1,118.4,239.8,118.6,239.5z"/>
		<path class="st14" d="M116.2,249.2c-0.2,0.1-0.4,0.1-0.6,0.2c0.2-0.1,0.4-0.4,0.5-0.6c-0.2,0.1-0.5,0.2-0.7,0.3
			c-0.2-0.2-0.5-0.4-0.8-0.4c-0.7,0-1.3,0.7-1.1,1.4c-0.9,0-1.8-0.5-2.3-1.2c-0.3,0.5-0.2,1.2,0.3,1.5c-0.2,0-0.4-0.1-0.5-0.1
			c0,0.5,0.4,1,0.9,1.1c-0.2,0-0.3,0.1-0.5,0c0.1,0.4,0.6,0.8,1,0.8c-0.5,0.4-1.1,0.5-1.7,0.5c0.5,0.3,1.1,0.5,1.7,0.5
			c2.1,0,3.2-1.8,3.2-3.3C115.9,249.6,116,249.4,116.2,249.2z"/>
		<path class="st14" d="M107.6,249.2c-0.2,0.1-0.4,0.1-0.6,0.2c0.2-0.1,0.4-0.4,0.5-0.6c-0.2,0.1-0.5,0.2-0.7,0.3
			c-0.2-0.2-0.5-0.4-0.8-0.4c-0.7,0-1.3,0.7-1.1,1.4c-0.9,0-1.8-0.5-2.3-1.2c-0.3,0.5-0.2,1.2,0.3,1.5c-0.2,0-0.4-0.1-0.5-0.1
			c0,0.5,0.4,1,0.9,1.1c-0.2,0-0.3,0.1-0.5,0c0.1,0.4,0.6,0.8,1,0.8c-0.5,0.4-1.1,0.5-1.7,0.5c0.5,0.3,1.1,0.5,1.7,0.5
			c2.1,0,3.2-1.8,3.2-3.3C107.3,249.6,107.5,249.4,107.6,249.2z"/>
		<path class="st14" d="M109,239.4c-0.3,0.1-0.6,0.2-0.9,0.3c0.3-0.2,0.6-0.5,0.7-0.9c-0.3,0.2-0.7,0.3-1,0.4
			c-0.3-0.3-0.7-0.5-1.2-0.5c-1,0-1.8,1-1.6,2c-1.3-0.1-2.5-0.7-3.3-1.7c-0.4,0.7-0.2,1.7,0.5,2.2c-0.3,0-0.5-0.1-0.7-0.2
			c0,0.7,0.5,1.4,1.3,1.6c-0.2,0.1-0.5,0.1-0.7,0c0.2,0.6,0.8,1.1,1.5,1.1c-0.7,0.5-1.5,0.8-2.4,0.7c0.7,0.5,1.6,0.7,2.5,0.7
			c3,0,4.7-2.5,4.6-4.8C108.5,240,108.8,239.7,109,239.4z"/>
	</g>
	<g>
		<circle class="st15" cx="135" cy="493.4" r="17.8"/>
		<path d="M136.3,483.4v8.5l1.7-1.3l1.7,1.3v-8.5h3.4v20.4h-14.5c-1.4,0-2.6-1.1-2.6-2.6v-15.3c0-1.4,1.1-2.6,2.6-2.6H136.3z
			 M141.4,500.4H129c-1.2,0-1.2,1.7,0,1.7h12.4V500.4z"/>
	</g>
	<g>
		<path d="M183.5,523.9h-97c-1.2,0-2.1,0.9-2.1,2.1v15.7c0,1.2,0.9,2.1,2.1,2.1h97c1.2,0,2.1-0.9,2.1-2.1V526
			C185.6,524.8,184.7,523.9,183.5,523.9z"/>
		<g>
			<text transform="matrix(1 0 0 1 91.4204 538.0463)" class="st5 st8 st10">APACHE LUCENE</text>
		</g>
	</g>
	<path d="M175,198.7H95c-1.3,0-2.3,1-2.3,2.3v15.3c0,1.3,1,2.3,2.3,2.3h80c1.3,0,2.3-1,2.3-2.3V201
		C177.3,199.8,176.3,198.7,175,198.7z"/>
	<g>
		<text transform="matrix(1 0 0 1 103.458 212.8936)" class="st5 st8 st10">ZOOKEEPER</text>
	</g>
	<path class="st16" d="M155.3,335.3h-38.6c-1.5,0-2.7,1.2-2.7,2.7v14.5c0,1.5,1.2,2.7,2.7,2.7h38.6c1.5,0,2.7-1.2,2.7-2.7V338
		C158,336.5,156.8,335.3,155.3,335.3z"/>
	<g>
		<text transform="matrix(1 0 0 1 119.3945 348.4775)" class="st5 st8 st10">KAFKA</text>
	</g>
	<g>
		<path d="M174.7,444.8H94.9c-1.3,0-2.4,1.1-2.4,2.4v15.1c0,1.3,1.1,2.4,2.4,2.4h79.8c1.3,0,2.4-1.1,2.4-2.4v-15.1
			C177.1,445.9,176,444.8,174.7,444.8z"/>
		<g>
			<text transform="matrix(1 0 0 1 98.6989 458.962)" class="st5 st8 st10">APACHE SOLR</text>
		</g>
		<g>
			<g>
				<path class="st17" d="M168.1,420.7h-66.5c-0.8,0-1.4,0.6-1.4,1.4v12c0,0.8,0.6,1.4,1.4,1.4h66.5c0.8,0,1.4-0.6,1.4-1.4v-12
					C169.5,421.3,168.8,420.7,168.1,420.7z"/>
				<text transform="matrix(1 0 0 1 104.6642 431.0479)" class="st18 st19 st20">URL</text>
			</g>
			<g>
				<path d="M170.4,440.8l-9.1-9.1c-1.7,1.1-3.7,1.7-5.9,1.7c-6.1,0-11.1-5-11.1-11.1c0-6.1,5-11.1,11.1-11.1
					c6.1,0,11.1,5,11.1,11.1c0,2.2-0.6,4.2-1.7,5.9l9.1,9.1C173.9,437.3,170.4,440.8,170.4,440.8z M155.4,430.9
					c4.8,0,8.6-3.9,8.6-8.6s-3.9-8.6-8.6-8.6c-4.8,0-8.6,3.9-8.6,8.6S150.6,430.9,155.4,430.9z"/>
				<circle class="st5" cx="155.4" cy="422.3" r="8.6"/>
			</g>
		</g>
	</g>
	<g>
		<g>
			<g>
				<g>
					<path class="st21" d="M109.2,474.5c-0.9,1.4-1.8,2.8-2.5,4.3"/>
					<path class="st22" d="M106.3,479.6c-1.9,4.2-3,8.8-3,13.7c0,4.7,1,9.2,2.8,13.3"/>
					<path class="st21" d="M106.3,507.1c0.7,1.5,1.5,3,2.4,4.4"/>
				</g>
			</g>
			<polygon class="st14" points="104.6,512.8 112.1,508.5 110.5,514.4 			"/>
		</g>
		<g>
			<g>
				<g>
					<path class="st21" d="M160.3,476.1c0.9,1.4,1.8,2.8,2.5,4.3"/>
					<path class="st22" d="M163.2,481.2c1.9,4.2,3,8.8,3,13.7c0,4.7-1,9.2-2.8,13.3"/>
					<path class="st21" d="M163.2,508.7c-0.7,1.5-1.5,3-2.4,4.4"/>
				</g>
			</g>
			<polygon class="st14" points="157.4,480 165,475.7 159.1,474.1 			"/>
		</g>
	</g>
	<g>
		<circle class="st14" cx="135.4" cy="45.9" r="8.8"/>
		<path class="st5" d="M140.5,43.2c-0.4,0.2-0.8,0.3-1.2,0.3c0.4-0.3,0.8-0.7,0.9-1.2c-0.4,0.2-0.9,0.4-1.3,0.5
			c-0.4-0.4-0.9-0.7-1.5-0.7c-1.4,0-2.3,1.3-2,2.6c-1.7-0.1-3.3-0.9-4.3-2.2c-0.5,0.9-0.3,2.2,0.6,2.8c-0.3,0-0.7-0.1-0.9-0.3
			c0,1,0.7,1.9,1.7,2.1c-0.3,0.1-0.6,0.1-0.9,0c0.3,0.8,1,1.4,2,1.5c-0.9,0.7-2,1-3.1,0.9c0.9,0.6,2,0.9,3.2,0.9
			c3.9,0,6.1-3.3,6-6.2C139.9,44,140.2,43.6,140.5,43.2z"/>
	</g>
	<g>
		<g>
			<g>
				<defs>
					<rect id="SVGID_1_" x="390.4" y="186.6" width="90.3" height="66"/>
				</defs>
				<clipPath id="SVGID_2_">
					<use xlink:href="#SVGID_1_"  style="overflow:visible;"/>
				</clipPath>
				<g class="st23">
					<path class="st24" d="M379,194.8l5.1-1.3l3.2,0.7l0.6,3.3l-0.7,3.5l-1.9,4.4l1.1,2.1l2.9,4.2l2.3,3.5l2.5,0.6l2.8,1.8l1.5,2.2
						c0,0,1.7,1.2,1.7,1c0-0.1,0.8-0.5,0.8-0.5l0.7,1.2l-0.9,1.9l-0.9,3.1l1.7,3.6l1.5,2.3l2.2,1.6l0.4,4.5l0.2,5.4l1.2,5l2.4,2.9
						l2.1,0.8l1.6,0.1l-2.1-1.4l-0.5-1.5l0.1-3.8l1.1-1.2l0.9-1.7l2.1-3.1l0.4-2.3l2.3-1.2l1.5-5.3l1.6-3.3l-6.2-3.4l-1.3-2.5
						l-1.8-0.8l-1.1-0.3l-1.7-2.3l-3.2,0l-1.7-0.9l-1.7,1.6l-2.1-0.2l-0.7-1.3l0.2-1.6l-0.6-0.5l-1.7,0l1-2.4l-1-0.4l-2.1,1.3
						l-1.4-1.8l0.3-2.5l2.8-1.2l1.3,0.3l1.1-0.5l1,0.5l0.8,2.3l0.6,0.2v-3.4l3.1-2.2l1.2-1.9l2-0.7l1.7-1.6l1.7-0.3l0.2-2l3.2-0.8
						l0.1-1.8l-0.5-1.9l-1.7,0.2l-0.6-1.4l-2.4-0.3l-0.8,2.6l-1.8,0.5l-0.7,1.3l-0.6-0.3l0.3-1.1l-1.9-0.9l-1-1.1l3.5-2.1l2.3,0.1
						l1.4-1.7l1.6-1l-3.8,0.6l-4.7,0.1l-3.4-0.1l-4-1.2l-3,0.6l-5.4-1.2c0,0-3.9,1-4.1,1c-0.2,0.1-0.8,0.8-0.8,0.8l-2.4,1l-1.4,1.1
						l-0.3,1.1L379,194.8z"/>
					<path class="st24" d="M491.4,192.8l-4.2-0.2l-4.5-1.6l-2.6,0.6l-5.2-1l-3.5,0l-2.9-1.7l-4.5,1l-2.4,0.8l-1.6-0.4l-1.1,0.3v1.2
						l-1.8-0.1l-3.1,0.5l-2,0.2l-3.8-1.3l-2.8-0.6l-3.2,1.2L441,193l-2,1.4v0.9v1l1.8-0.3l-0.9,1.3l0.1,0.9l-1.7,0.7l-0.7,0.6
						l-1.2,0.8l-1.9,0.3l1.5,1.2v1.6l-3-0.1v1.7l-0.8,0.9l0.3,0.8l1.5,0.1l-0.1,0.7l-1.7,1.9v0.9l-2.1,1.8l-1.1,2.2l0.4,2.4
						l-0.4,1.3l1.8,3.6c0,0,1.6,1.5,1.8,1.5s2.2,0.1,2.2,0.1l2.3-0.6l1.5,0.2l1.8,1.3l-0.2,2.5l1.5,1.8l1,2.1l-0.8,3l0.5,3.4
						l1.2,3.8l1,2.7c0,0,3.4-0.1,3.5-0.3c0.1-0.2,2.8-3.1,2.8-3.1l1-1.1l0.1-2.8l2.7-2.1l-0.4-4.2l0.1-1.5l3.1-3.9l2-3.1l0.2-0.7
						l-3.2,0.3l-3.3-4.1l-1.9-4.2l0.7-0.7l1.8,2.7l1.7,4l0.9,1.1l2.8-0.7l2.2-1.9l1.3-1.7l-1.7-1.9l-1.5,0.6l-2.5-2.9l0.6-0.3
						l2.6,1.8l1.1,0.3l0.8,0.5l2.8,0.4l1.7,1.3l1.1,1.1l0.9,0.2l0.7,3.8l1.6,2.5l1.2-0.6l0.2,1.9l0.7,0.1l0.5-1.3l-1.2-2.2l0.9-2.8
						l2.2-1.8l1.9,0.3l0.8,2.3l0.7,0.9l1.5,0.5v3.4l1.1,1.6l-1.6-0.9l-0.9,0.5l2.9,4.2l2.1,1.5l3.2,1.6l0.5-0.6c0,0-0.1-0.4-0.3-0.5
						c-0.2-0.1-3-0.7-3-0.7l-0.4-2.2l-0.7-1.7l-0.3-1.7l-1.9-2V220l1.5,0.4l0.8,1.8l1.2,0.5l1.6-1.4c0,0-1.8-3.4-1.8-3.2
						c0,0.2-1-0.8-1-0.8l0.7-1.2l1.1,0.4l3.8-1.7l0.5-2.6l-1-2l-0.7-1.2l-1.3-1.3l0.8-1l0.5,1l1.7,0.1l1.1,1.9l1,0.3l0.3-1.1l-1.7-2
						l0.7-1.2l1.7-2.2l-1.4-3l-2.1-0.9l-0.1-1.7l3.6-0.1l1.4-1.1l1.4,0.3v2.8l2.3,2.1l-0.7-4.2l1.3-0.4l1.3-1v-1.9L491.4,192.8z
						 M451.6,209.3l-1,0.6l-3.5-0.3l-1.6-0.7l-0.3,1.2l-0.8,0l-1.2-1l-2.2-0.6v-1.7l-2.7-0.1l-2.8,0.7l-1-0.6l2-1.3l1.3-1.4v-0.6
						l1.1,0l1.5-0.6l2,2.1l0.6,1.5l1.1-1.4l-0.7-0.6l-1.5-1.3v-1l0.6,0.4l2.2,1.9l0.7,2.4l1-0.2l-0.3-1.7l1.3,0l-0.1,0.9l1.6,1.2
						l2.7,0.1V209.3z"/>
				</g>
			</g>
			<rect x="356.3" y="169" class="st25" width="124.3" height="83.6"/>
			<g>
				<rect x="363.1" y="175.6" class="st7" width="22.6" height="7.6"/>
				<rect x="449.3" y="175.6" class="st7" width="24.1" height="7.6"/>
				<rect x="394.7" y="175.6" class="st7" width="24.1" height="7.6"/>
				<rect x="421.9" y="175.6" class="st7" width="24.1" height="7.6"/>
				<rect x="363.1" y="185.9" class="st7" width="22.6" height="7.6"/>
				<path class="st7" d="M363.1,196.1v50.5h22.6v-50.5H363.1z M383.4,239.9h-18.1v-6.7h18.1V239.9z M383.4,231.1h-18.1v-6.7h18.1
					V231.1z M383.4,222.4h-18.1v-6.7h18.1V222.4z M383.4,213.6h-18.1v-6.7h18.1V213.6z M383.4,204.9h-18.1v-6.7h18.1V204.9z"/>
			</g>
		</g>
		<g>
			<line class="st26" x1="390.4" y1="169" x2="390.4" y2="252.5"/>
			<line class="st26" x1="480.6" y1="187.6" x2="390.4" y2="187.6"/>
		</g>
	</g>
</g>
</svg>
