<?xml version="1.0" encoding="utf-8"?>
<!-- Generator: Adobe Illustrator 19.2.1, SVG Export Plug-In . SVG Version: 6.00 Build 0)  -->
<svg version="1.1" id="Layer_1" xmlns="http://www.w3.org/2000/svg" xmlns:xlink="http://www.w3.org/1999/xlink" x="0px" y="0px"
	 viewBox="0 0 200 200" style="enable-background:new 0 0 200 200;" xml:space="preserve">
<style type="text/css">
	.st0{fill:#FCC69F;}
	.st1{clip-path:url(#SVGID_2_);}
</style>
<g>
	<g>
		<g id="z5XWJ8.tif">
			<g>
				<path class="st0" d="M62.1,156.2c0-6.2,0.2-12.4-0.1-18.6c-0.2-4.7-2.2-9-4.6-12.9c-3.2-5.1-6.5-10-9.8-15
					c-6.7-10-12.3-20.5-14.4-32.5c-5.7-32.8,9.4-63.6,45.9-73.8c22.5-6.3,44.2-3.7,63.6,10.1c15.3,10.8,23.2,26,25,44.6
					c1.7,17.9-3.5,33.9-13.2,48.7c-3.6,5.5-7.2,10.9-10.8,16.4c-4.1,6.4-6.2,13.3-5.9,21c0.3,9.1,0,18.2,0.1,27.4
					c0.1,8.1-3.7,13.5-11,16.6c-1.1,0.5-2.2,0.9-3.4,1.3c-2.9,1.1-5.6,2-7.2,5.3c-1.6,3.3-5.2,4.9-8.9,5.1c-4.8,0.3-9.7,0.4-14.5,0
					c-4.7-0.4-8.3-2.9-10.4-7.3c-0.3-0.7-1.1-1.3-1.8-1.6c-2.7-1.2-5.6-2.1-8.3-3.4c-6.6-3-10-8.2-10-15.5c0-5.3,0-10.5,0-15.8
					C62.2,156.2,62.2,156.2,62.1,156.2z M101.2,151.3c1.7-0.1,4.6-0.3,7.5-0.7c6.6-0.9,12.9-2.7,19-5.5c1.8-0.8,2.8-1.9,2.6-4.1
					c-0.1-2,0.1-4,0.4-6c1.1-7.4,4.9-13.6,8.8-19.7c3.9-6,8-11.8,11.6-17.9c5.8-9.6,9.1-20.1,9.3-31.4c0.2-22.8-9-40.3-29.5-51.1
					c-14.2-7.5-29.5-8.9-45.1-5.6C72,12.2,60,18.5,51.1,29.7c-11.9,15.1-13.9,32.4-9.4,50.6c2.5,10.4,8.2,19.2,14,27.9
					c3.2,4.8,6.4,9.6,9.3,14.6c3.2,5.5,5.1,11.5,4.7,17.9c-0.2,2.4,0.9,3.6,2.9,4.5C81.3,149.2,90.4,151.1,101.2,151.3z M69.8,152.2
					c0,6.4,0,12.5,0,18.5c0,6,1.6,8.4,7.3,10.7c3.6,1.4,7.1,2.8,10.7,4.2c1.1,0.4,1.5,0.9,1.5,2.2c0,2.5,1,4.1,3.5,4.3
					c4.9,0.3,9.8,0.3,14.6-0.1c2.5-0.2,3.3-1.7,3.3-4.4c0-1.1,0.4-1.6,1.4-2c3.9-1.4,7.7-3,11.5-4.5c4.6-1.7,6.7-5,6.6-9.9
					c-0.1-5.7,0-11.4,0-17.1c0-0.6-0.1-1.2-0.2-1.9C109.9,160.9,90,160.9,69.8,152.2z"/>
				<path class="st0" d="M18.1,67.6H2.9c-0.5,0-0.9-0.4-0.9-0.9v-5.5c0-0.5,0.4-0.9,0.9-0.9h15.1c0.5,0,0.9,0.4,0.9,0.9v5.5
					C19,67.2,18.6,67.6,18.1,67.6z"/>
				<path class="st0" d="M181,66.7v-5.2c0-0.6,0.5-1,1-1H197c0.6,0,1,0.5,1,1v5.2c0,0.6-0.5,1-1,1H182C181.4,67.7,181,67.2,181,66.7
					z"/>
				<path class="st0" d="M164.7,17l-3.3-3.9c-0.4-0.5-0.4-1.3,0.1-1.7l11.3-9.6c0.5-0.4,1.3-0.4,1.7,0.1l3.3,3.9
					c0.4,0.5,0.4,1.3-0.1,1.7l-11.3,9.6C165.9,17.5,165.1,17.5,164.7,17z"/>
				<path class="st0" d="M191.6,29.5l1.8,5.1c0.2,0.6-0.1,1.2-0.6,1.4l-14.2,5.2c-0.6,0.2-1.2-0.1-1.4-0.6l-1.8-5.1
					c-0.2-0.6,0.1-1.2,0.6-1.4l14.2-5.2C190.8,28.7,191.4,29,191.6,29.5z"/>
				<path class="st0" d="M161.3,115.2l3.4-4.1c0.4-0.5,1.1-0.5,1.6-0.1l11.5,9.7c0.5,0.4,0.5,1.1,0.1,1.6l-3.4,4.1
					c-0.4,0.5-1.1,0.5-1.6,0.1l-11.5-9.7C161,116.4,160.9,115.7,161.3,115.2z"/>
				<path class="st0" d="M27,1.5l11.6,9.7c0.5,0.4,0.5,1.1,0.1,1.5l-3.4,4.1c-0.4,0.5-1.1,0.5-1.5,0.1L22.2,7.3
					c-0.5-0.4-0.5-1.1-0.1-1.5l3.4-4.1C25.9,1.2,26.5,1.1,27,1.5z"/>
				<path class="st0" d="M6.5,34.5l1.9-5.3c0.2-0.5,0.7-0.8,1.2-0.6l14.4,5.2c0.5,0.2,0.8,0.7,0.6,1.2l-1.9,5.3
					c-0.2,0.5-0.7,0.8-1.2,0.6L7.1,35.7C6.6,35.5,6.3,35,6.5,34.5z"/>
				<path class="st0" d="M8.5,98.5l-1.9-5.3c-0.2-0.5,0.1-1,0.6-1.2l14.4-5.3c0.5-0.2,1,0.1,1.2,0.6l1.9,5.3c0.2,0.5-0.1,1-0.6,1.2
					L9.7,99.1C9.2,99.3,8.6,99,8.5,98.5z"/>
				<path class="st0" d="M193.3,93.9l-1.6,4.4c-0.3,0.7-1.1,1.1-1.8,0.8l-13.6-4.9c-0.7-0.3-1.1-1.1-0.8-1.8l1.6-4.4
					c0.3-0.7,1.1-1.1,1.8-0.9l13.6,4.9C193.2,92.4,193.6,93.2,193.3,93.9z"/>
				<path class="st0" d="M25.4,126.1l-3.4-4c-0.4-0.5-0.3-1.2,0.1-1.6l11.5-9.6c0.5-0.4,1.2-0.3,1.6,0.1l3.4,4
					c0.4,0.5,0.3,1.2-0.1,1.6l-11.5,9.6C26.6,126.6,25.8,126.6,25.4,126.1z"/>
			</g>
		</g>
	</g>
	<g>
		<defs>
			<path id="SVGID_1_" d="M101.2,151.3c1.7-0.1,4.6-0.3,7.5-0.7c6.6-0.9,12.9-2.7,19-5.5c1.8-0.8,2.8-1.9,2.6-4.1
				c-0.1-2,0.1-4,0.4-6c1.1-7.4,4.9-13.6,8.8-19.7c3.9-6,8-11.8,11.6-17.9c5.8-9.6,9.1-20.1,9.3-31.4c0.2-22.8-9-40.3-29.5-51.1
				c-14.2-7.5-29.5-8.9-45.1-5.6C72,12.2,60,18.5,51.1,29.7c-11.9,15.1-13.9,32.4-9.4,50.6c2.5,10.4,8.2,19.2,14,27.9
				c3.2,4.8,6.4,9.6,9.3,14.6c3.2,5.5,5.1,11.5,4.7,17.9c-0.2,2.4,0.9,3.6,2.9,4.5C81.3,149.2,90.4,151.1,101.2,151.3z"/>
		</defs>
		<clipPath id="SVGID_2_">
			<use xlink:href="#SVGID_1_"  style="overflow:visible;"/>
		</clipPath>
		<g id="DYnl7M.tif" class="st1">
			<g>
				<path class="st0" d="M102.4,157.1c-10.2-0.2-18.1-0.6-25.7-2.8c-8-2.4-10-6.2-7.2-14.1c1.7-4.8,4.6-8.3,9.6-9.9
					c2.3-0.7,4.6-1.6,6.9-2.4c1.1-0.4,1.6-1.2,1.5-2.4c-0.1-1.7-0.2-3.5-1.3-4.9c-0.3-0.4-0.5-0.9-0.7-1.4c-1-2.7-1.7-5.4-3.8-7.6
					c-0.8-0.8-1.1-2.2-1.2-3.3c-0.4-4.5-0.8-9-0.7-13.5c0.1-6.3,3.8-10.6,9.8-12.3c0.5-0.1,0.9-0.3,1.3-0.6c7.3-4.6,19.2-3.1,25,3.2
					c4.5,4.8,5.4,10.7,4.6,17c-0.3,2.1-0.1,4.3-0.6,6.4c-0.4,1.6-1.4,3.1-2.2,4.6c-0.5,0.9-1.1,1.8-1.5,2.8
					c-0.9,1.9-1.9,3.8-2.5,5.8c-0.5,1.7-0.5,3.5-0.5,5.3c0,0.3,0.7,0.7,1.2,0.9c2.4,0.9,4.9,1.7,7.3,2.7c6.4,2.5,11,9.9,10.3,16.8
					c-0.3,2.4-1.8,4-3.8,5.2c-3.6,2.1-7.6,3-11.6,3.5C110.9,156.5,105.5,156.8,102.4,157.1z M101.3,151.4c3.5-0.3,8.4-0.5,13.2-1.2
					c3.3-0.5,6.5-1.5,9.8-2.3c1.2-0.3,1.7-1.1,1.6-2.4c-0.3-4.8-2.8-8.3-7.3-10c-2.6-1-5.3-1.9-7.9-3c-2.7-1.2-3.8-3.5-3.8-6.3
					c0-1.9,0.2-3.8,0.3-5.7c0-0.4,0.2-0.8,0.4-1c2-2.1,2.5-4.7,3.3-7.4c0.2-0.8,0.7-1.8,1.4-2.3c1.6-1.1,1.9-2.5,1.7-4.3
					c-0.1-0.7-0.1-1.4,0-2.1c0.6-3.1,1.1-6.2,0.2-9.4c-1.4-5.4-6-8.9-12.3-9.2c-2.9-0.1-5.8-0.1-8.3,1.6c-0.8,0.6-1.8,1-2.7,1.3
					c-2.6,0.7-4.7,2.1-5.2,4.8c-0.4,2-0.6,4.1-0.5,6.1c0.1,2.7,0.4,5.4,0.7,8.1c0.1,0.9,0.5,2,1.2,2.5c1.3,0.9,1.8,2,2.1,3.3
					c0.6,2.4,1.2,4.7,2.9,6.6c0.4,0.4,0.6,1.1,0.6,1.6c0.1,2,0.2,4,0.1,6c-0.1,2.4-1.2,4.4-3.4,5.3c-2.5,1.1-5.1,2.2-7.7,3
					c-4.3,1.2-6.4,4.2-7.4,8.3c-0.8,3.4-0.6,3.8,2.8,4.9C84.6,150.8,92.3,151.1,101.3,151.4z"/>
				<path class="st0" d="M73.9,106.8c-1.8,3.4-4.5,5.6-8.2,6.6c6,1.6,11.2,4.1,13,10.7c-1.6,0.7-3.3,1.4-5.1,2.1
					c-0.2-0.4-0.4-0.8-0.6-1.2c-1-2.3-2.5-3.8-4.9-4.6c-2.4-0.8-4.8-1.5-7-2.6c-4.2-2-5.7-4.9-5.3-9.8c3.6-0.4,7.5,0.5,11.1-1.5
					c-2.3-5.4-2.9-11.1-3.2-16.8c-0.1-2-0.1-3.9,0-5.9c0.2-3.3-0.9-5.9-3.5-7.8c-2.5-1.8-5.2-1.7-7.9-0.3c-1,0.5-1.7,0.4-2.7,0
					c-5.7-2.7-11.5,1-11.3,7.4c0.1,6.3,0,12.6-1.6,18.8c-0.4,1.5-0.9,3-1.5,4.7c3.5,2,7.4,1,11.1,1.5c0.1,5.9-1.7,8.6-7.1,10.6
					c-2.1,0.8-4.3,1.4-6.4,2.3c-2.7,1.1-5.4,5.9-4.8,8.8c0.1,0.5,0.9,1.1,1.4,1.3c3.5,0.8,7.1,1.8,10.7,2.3c7.3,1,14.7,0.9,22,0
					c1.5-0.2,2.9-0.4,4.4-0.6c-0.9,2-1.6,3.9-2.6,5.7c-0.2,0.4-1.2,0.6-1.8,0.7c-4,0.2-7.9,0.6-11.9,0.6c-6.8-0.1-13.5-0.5-20-2.4
					c-8.1-2.5-9.3-5.8-6.7-13.6c1.7-4.9,5.3-7.8,10.2-9.2c0.9-0.2,1.8-0.5,3-0.9c-0.7-0.3-1.1-0.4-1.4-0.5c-2.9-0.9-5.1-2.6-6.6-5.3
					c-0.2-0.4-0.3-1.2,0-1.5c2.5-3.2,3.1-7,3.5-10.9c0.4-4.1,0.4-8.1,0.4-12.2c0.1-7.8,7.1-16.3,17.3-13.5c0.7,0.2,1.5,0.3,2.2,0.1
					c9.2-2.6,17.7,4,17.5,13.6c-0.1,5.5,0,11,1.2,16.4C71.4,103,71.7,103.9,73.9,106.8z"/>
				<path class="st0" d="M119.2,123.4c0.6-1.6,1.1-3.1,1.8-4.6c0.2-0.5,0.8-1,1.3-1.3c2.2-0.9,4.5-1.6,6.7-2.5
					c3.5-1.3,4.3-3.8,2.4-7c-0.8-1.4-1.5-2.9-2.3-4.3c-0.7-1.3-1.5-2.6-2.3-3.9c-0.3-0.5-0.6-0.9-0.7-1.4c-0.5-3.4-0.9-6.8-1.2-10.2
					c-0.2-2.2-0.3-4.4,0.1-6.5c1.2-6.3,6.8-10.9,13.5-11.3c2.7-0.1,5.4,0,8,1.2c0.4,0.2,1.1,0.2,1.6,0.1c7.9-1.1,14.5,6.9,13.6,13.9
					c-0.4,2.7-0.3,5.4-0.2,8.1c0,2.6-0.7,4.9-2.5,6.9c-0.5,0.5-0.8,1.1-1.1,1.7c-1.2,2.2-2.2,4.5-3.4,6.7c-0.9,1.6-0.3,4.5,1.3,5.2
					c2,0.9,4.2,1.5,6.3,2.3c6.4,2.4,10.4,8.4,10.1,15.2c-0.1,2.2-1.2,3.8-3,5c-2.9,2-6.3,2.8-9.6,3.3c-7.1,1.1-14.2,1.7-21.3,1.2
					c-1-0.1-1.4-0.3-1.6-1.3c-0.3-1.5-1-2.9-1.5-4.5c0.7,0,1.3,0,2,0c8.8,0.5,17.5,0.2,26.1-2.1c3.7-1,3.9-1.4,2.8-5.1
					c-0.9-3.1-2.6-5.3-5.8-6.3c-2-0.6-4-1.3-6-2.1c-3.6-1.4-5.1-4.2-5.6-7.9c-0.4-2.6,0-4.7,1.7-6.8c1.3-1.7,1.9-4,2.9-6
					c0.4-0.8,1.1-1.5,1.6-2.3c0.4-0.7,1.1-1.4,1.1-2.2c0.2-3.4,0.3-6.8,0.4-10.3c0.1-3.2-2.4-6.2-5.5-6.8c-0.7-0.1-1.5,0.2-2.2,0.2
					c-1.1,0-2.4,0.1-3.4-0.4c-3.8-2-8.9-1.4-12,1.6c-1.8,1.7-2.5,3.9-2.3,6.4c0.2,3,0.1,6,0.3,8.9c0.1,0.9,0.7,1.7,1.1,2.5
					c0.5,0.9,1.2,1.7,1.7,2.6c1.3,2.4,2.4,4.9,3.9,7.3c1,1.6,0.7,3.2,0.6,4.7c-0.3,4.7-2.7,7.8-7.3,9.2c-1.8,0.5-3.6,1.2-5.4,1.8
					c-0.5,0.2-1.1,0.3-1.4,0.7C122.6,125.1,121,124.1,119.2,123.4z"/>
				<path class="st0" d="M76.4,83.6c-1.4-1.3-1.5-3.6-1.8-5.8c-0.3-1.9-0.3-3.9-0.6-5.8c-0.4-3.4-0.4-6.8,1.2-9.9
					c1-1.8,2.2-3.9,3.9-4.8c4.3-2.3,8.5-4.8,13.6-4.9c8.8-0.2,16.5,3.4,19.1,12.5c1,3.5,0.8,7,0.1,10.6c-1.8-0.5-3.5-1-5.3-1.6
					c0-0.4-0.1-1,0-1.5c1.2-8.3-3.5-13.9-11.8-14.3c-2.9-0.1-5.7,0.1-8,2.1c-0.4,0.4-1.2,0.4-1.8,0.6c-3.3,0.8-5.1,2.8-5.3,6.2
					c-0.1,2.1,0.1,4.1,0.3,6.2c0.2,2.1,0.4,4.3,0.6,6.4c0,0.2-0.1,0.5-0.3,0.7C79.1,81.4,77.8,82.5,76.4,83.6z"/>
				<path class="st0" d="M156,67c-2.1-0.4-3.9-0.8-5.8-1.2c0-1.2-0.1-2.4,0-3.7c0.6-6.6-5.3-10.9-11.3-8.1c-1,0.5-1.7,0.5-2.7,0
					c-5.9-2.7-11.6,1.2-11.3,7.7c0,1.2,0,2.4,0.1,3.6c0.2,3.1-0.2,5.9-2.5,8.4c-1.5,1.7-2.2,4.2-3.2,6.4c-1-0.5-1.5-1.3-1.2-2.8
					c1.1-5.1,1.3-10.2,1.1-15.4c-0.3-8,5.9-14.9,13.6-14.5c3.3,0.2,6.5,0.2,9.7,0c7-0.4,13.4,5.8,13.6,12.9
					C156.1,62.5,156,64.7,156,67z"/>
				<path class="st0" d="M33.8,67.3c0.7-6.6,0.3-13.3,4.6-19c7.3-9.6,24.8-9.6,30.6,4.4c1.2,2.8,1.9,5.6,0.4,8.7
					c-0.9,1.8-1,4-1.4,5.9c-2.6-1-3.7-2.8-3.3-5.7c0.2-1.7-0.1-3.6-0.6-5.3c-1.7-5.9-6.1-9.2-12-9.1c-5.5,0.1-10,3.6-11.5,9.4
					c-0.5,1.9-0.4,4-0.4,5.9c0,0.9,0,1.4-1,1.8C37.4,65.3,35.7,66.3,33.8,67.3z"/>
				<path class="st0" d="M134.3,41.5c-2,0.1-3.8,0.2-5.6,0.3c-0.2-0.9-0.4-1.8-0.7-2.6c-1.5-4.2-4.8-5.9-8.9-6.2
					c-2.5-0.2-5-0.1-7.1,1.7c-0.3,0.3-0.8,0.4-1.2,0.5c-3.4,0.8-4.8,2.4-4.8,5.9c0,1.8,0.3,3.6,0.5,5.3c0.1,1,0.1,2,0.2,3.1
					c-1.6-0.6-2.9-1.2-4.2-1.5c-1.3-0.3-1.9-1-2-2.3c-0.3-3.1-0.5-6.2,0.6-9.2c0.8-2.2,2-4.3,4.1-5.3c3.6-1.7,7.2-3.9,11.4-4.1
					c8-0.3,15.2,3,17.3,11.6C134.1,39.7,134.2,40.5,134.3,41.5z"/>
				<path class="st0" d="M43.4,37.4c-0.3-2-0.5-3.8-0.7-5.6c-0.3-2.8-0.1-5.6,1.2-8.1c0.7-1.4,1.7-3,2.9-3.8
					c6.1-3.7,12.6-6.2,19.9-3.6c3,1.1,5.5,2.8,7.3,5.5c0.3,0.4,0.5,0.9,0.9,1.5c-2.2,0.2-4.3,0.3-6.3,0.5c-0.2,0-0.5-0.2-0.7-0.3
					c-3.1-2.3-6.5-2.7-10.2-2.2c-0.2,0-0.3,0-0.5,0.1c-2.2,0.9-4.4,1.8-6.5,2.9c-1.7,0.9-2.2,2.7-2.2,4.5c0,1.9,0.3,3.9,0.4,5.8
					c0,0.5,0.1,0.9,0.2,1.4C47.1,36.4,45.2,36.9,43.4,37.4z"/>
				<path class="st0" d="M59.2,36.6c2.3-4.2,5.9-6.4,10.5-7.3c3.1-0.6,6.1-0.3,8.9,1c0.4,0.2,0.9,0.1,1.4,0.1
					c7-0.9,13.8,5.7,13.1,12.7c-0.1,1.1-0.2,2.3-0.3,3.4c-1.9,0.3-3.7,0.5-5.7,0.8c0.1-1.5,0.2-3,0.3-4.5c0.2-2.7-1-4.7-3.3-5.9
					c-1.1-0.6-2.6-0.5-3.9-0.6c-1-0.1-2.2,0.2-3.1-0.3c-4.3-2.2-9.2-1.3-12.3,2.5c-0.1,0.1-0.2,0.2-0.3,0.3
					C62.7,38.1,61.1,37.4,59.2,36.6z"/>
				<path class="st0" d="M125.5,22.4c2.6-2.4,5.6-3.5,8.9-3.8c12.2-1,18,8.6,18.4,17.1c0.1,1.4,0.2,2.8,0.3,4.2c0,1.4,0,2.9,0,4.5
					c-2-0.8-3.6-1.4-5.1-2.1c-0.3-0.1-0.5-0.6-0.5-1c-0.2-2.1-0.4-4.3-0.5-6.4c-0.3-4.8-3.5-9-7.8-10.2c-2.3-0.6-4.5-0.5-6.8,0.2
					c-0.5,0.2-1.2,0.2-1.7,0C129,24.1,127.4,23.3,125.5,22.4z"/>
				<path class="st0" d="M86,25c-1.9-0.2-3.6-0.5-5.4-0.7c-0.3-4.7,4.3-10.4,9.3-11.3c1.6-0.3,3.3-0.3,4.8,0
					c1.7,0.3,3.3,0.2,4.9-0.1c6-1.1,11.9,2.6,13.5,8.7c-1.7,0.6-3.4,1.2-5.1,1.7c-0.1-0.1-0.2-0.1-0.2-0.2c-1.7-4.2-5.4-6.1-9.9-3.7
					c-0.4,0.2-1,0.3-1.3,0.1C91.7,16.8,87.1,19.3,86,25z"/>
			</g>
		</g>
	</g>
</g>
</svg>
