<?xml version="1.0" encoding="utf-8"?>
<!-- Generator: Adobe Illustrator 19.2.1, SVG Export Plug-In . SVG Version: 6.00 Build 0)  -->
<svg version="1.1" id="Layer_1" xmlns="http://www.w3.org/2000/svg" xmlns:xlink="http://www.w3.org/1999/xlink" x="0px" y="0px"
	 viewBox="0 0 200 200" style="enable-background:new 0 0 200 200;" xml:space="preserve">
<style type="text/css">
	.st0{fill:#FCC69F;}
</style>
<g>
	<g id="KCdFAW.tif">
		<g>
			<path class="st0" d="M97.8,43.7c1.4,0,2.7,0,4.1,0c0.2,0,0.4,0.1,0.5,0.1c3.9,0.2,7.8,0.9,11.5,2.3c9.1,3.2,16.4,8.9,21.7,17
				c3.7,5.7,5.9,11.9,6.6,18.7c0.1,0.9,0.2,1.7,0.2,2.6c0,1.2,0,2.4,0,3.7c0,0.2,0,0.3-0.1,0.5c-0.3,2.1-0.4,4.2-0.8,6.2
				c-2,9.5-6.7,17.5-14,23.8c-6.7,5.7-14.4,9-23.1,10c-0.9,0.1-1.8,0.2-2.7,0.2c-1.2,0-2.3,0-3.5,0c-0.2,0-0.3-0.1-0.5-0.1
				c-2.1-0.1-4.2-0.4-6.3-0.8c-5.6-1.1-10.7-3.3-15.4-6.6c-5.6-3.9-10.1-8.8-13.3-14.7c-2.7-5-4.4-10.2-4.9-15.9
				c-0.1-0.9-0.2-1.8-0.2-2.6c0-1.2,0-2.4,0-3.7c0.1-0.6,0.1-1.2,0.2-1.7c0.4-4.5,1.4-8.8,3.2-12.9c4.3-9.9,11.2-17.2,20.9-21.9
				c4.3-2.1,8.9-3.4,13.7-3.9C96.2,43.8,97,43.8,97.8,43.7z M135.2,86.1c0-19.5-15.9-35.3-35.5-35.2c-18.9,0.1-34.8,15.6-34.8,35.2
				c0,19.4,15.8,35.2,35.2,35.2C119.4,121.3,135.2,105.5,135.2,86.1z"/>
			<path class="st0" d="M77.9,79.2c1.3,0,2.4,0,3.5,0c0.2-1.3,0.3-2.5,0.6-3.7c0.9-3.4,2.9-6.1,5.7-8.1c3.9-2.9,8.3-4.2,13.2-4.1
				c2.9,0,5.7,0.5,8.4,1.6c5.2,2.2,8.7,6,10.9,11.1c1.6,3.8,2.1,7.7,1.9,11.8c-0.2,3.9-1.3,7.6-3.3,10.9c-3,5-7.2,8.3-12.8,9.7
				c-3.3,0.8-6.7,0.8-10,0.1c-3-0.6-5.7-1.7-8.1-3.5c-2.8-2.1-4.7-4.8-6-8c-0.6-1.4-1-2.9-1.2-4.4c3.7,0,7.4,0,11,0
				c0.1,0.5,0.3,1.1,0.4,1.6c1,3.3,3.3,5.2,6.6,5.8c1.9,0.3,3.9,0.4,5.8-0.3c2.6-1,4.4-2.8,5.6-5.2c1.5-2.8,1.8-5.9,1.6-9
				c-0.1-2.2-0.4-4.4-1.2-6.5c-0.8-2.1-1.9-3.9-3.9-5.1c-1.3-0.8-2.6-1.3-4.1-1.4c-1.9-0.1-3.8-0.3-5.7,0.4
				c-3.1,1.1-4.9,3.3-5.5,6.6c1,0,1.9,0,2.9,0c0,0,0,0.1,0,0.1c-2.7,3-5.4,6.1-8.2,9.2C83.4,85.4,80.7,82.4,77.9,79.2z"/>
		</g>
	</g>
	<path class="st0" d="M200,40.6c0-1-0.4-2.4-1-3.1c-3.8-4-7.7-7.9-11.7-11.7c-0.5-0.5-1.2-0.9-1.8-1c-1.9-0.3-3.8-0.3-5.6-0.5
		c-6.5-0.7-13.1-0.9-19.4-2.2c-7.2-1.5-14.2-4-21.2-6.3c-13.5-4.3-26.3-3.6-38.1,4.9c-1.1,0.8-1.8,0.4-2.7-0.3
		c-9.6-6.6-20-9-31.4-6.2C60.5,15.9,54,18,47.6,20.2c-10.4,3.5-21.2,3.5-32,4.6c-1.1,0.1-2.4,0.7-3.2,1.4c-3.7,3.6-7.3,7.3-11,10.9
		C0.4,38.1,0,39.2,0,40.7c0,47.7,0,95.4,0,143.1c0,0.8,0.1,1.6,0.1,2.5c0.9,0,1.6,0,2.3,0c9,0,17.8-1.4,26.4-3.6
		c10.6-2.7,21.1-5.6,31.7-8.2c4-1,8.1-1.6,12.3-0.9c0.1,0.7,0.1,1.3,0.2,1.8c0.7,6.3,5.4,10.8,11.7,10.9c10.2,0.1,20.3,0.1,30.5,0
		c5.3,0,9.7-3.4,11.1-8.2c0.4-1.4,0.5-2.8,0.8-4.4c4.1-0.5,8.2,0.2,12.2,1.2c11.6,2.8,23.1,5.8,34.7,8.6c8.3,2,16.8,3,25.9,2.8
		c0-1.1,0-2,0-3c0-33.1,0-66.2,0-99.3C200,69.5,200,55.1,200,40.6z M23.2,32.2c6.7-0.9,13.4-1.4,19.7-2.9c7.2-1.7,14.2-4.3,21.4-6.5
		c10.8-3.3,21-2.5,30.4,4.4c1,0.8,1.5,1.5,1.5,2.9c0,3.1,0,6.2,0,9.3c0.5,0,1-0.1,1.5-0.1c1.5,0,3,0,4.5,0c0.2,0,0.4,0.1,0.6,0.1
		c0.4,0,0.8,0.1,1.2,0.1c0-3.1,0-6.3,0-9.4c0-1.5,0.6-2.2,1.6-3c9.3-6.7,19.4-7.5,30-4.2c4.2,1.3,8.4,2.7,12.6,4.1
		c8.8,3.1,17.9,4.3,27.1,4.8c0.5,0,1,0.1,1.7,0.1c0,41.1,0,82.1,0,123.4c-3.6-0.3-7-0.6-10.4-0.9c-9.6-0.8-18.4-4.4-27.4-7.2
		c-11.9-3.8-23.4-3.8-34.4,2.7c-0.1,0.1-0.3,0-0.6,0.1c0-0.5-0.1-1-0.1-1.4c0-5.2,0-10.3,0-15.5c-0.7,0.1-1.3,0.1-2,0.2
		c-1.3,0-2.6,0-3.9,0c-0.2,0-0.4-0.1-0.5-0.1c-0.5,0-0.9-0.1-1.4-0.1c0,5.2,0,10.5,0,15.7c0,0.4,0,0.7,0,1.2
		c-0.4-0.1-0.6-0.1-0.8-0.2c-10.8-6.3-22.1-6.5-33.8-2.9c-7.2,2.2-14.3,4.7-21.6,6.4c-5.4,1.3-11,1.5-16.7,2.2
		C23.2,114,23.2,72.9,23.2,32.2z M192.2,178.7c-5.4-0.9-10.7-1.5-15.9-2.7c-11.7-2.7-23.3-5.8-35-8.6c-5.4-1.3-10.8-2.2-16.4-1.2
		c-0.4,0.1-0.9,0.2-1.3,0.3c-4.5,1.3-4.5,1.3-4.5,5.9c0,0.7,0,1.5,0,2.2c-0.1,2.3-1.5,3.9-3.8,3.9c-10.2,0-20.5,0-30.7,0
		c-2.3,0-3.7-1.6-3.8-3.9c0-0.9,0-1.9,0-2.8c0-3.6,0-3.7-3.4-4.9c-4.5-1.7-9.2-1.7-13.7-0.7c-10.5,2.4-20.9,5.1-31.4,7.7
		c-8,2-16,3.9-24.6,4.5c0-0.9,0-1.6,0-2.4c0-44.1,0-88.1,0-132.2c0-1.5,0.4-2.6,1.5-3.6c2-1.9,3.8-3.9,5.7-5.9
		c0.2,0.1,0.4,0.2,0.5,0.3c0,42.8,0,85.7,0,128.8c4.6-0.3,8.9-0.6,13.2-0.8c11.1-0.5,21.6-3.8,32.1-7.3c4-1.4,8.2-2.3,12.4-2.8
		c9.7-1.2,17.8,2.7,25.1,8.8c0.5,0.5,1.1,0.9,1.7,1.4c1.6-1.3,3.1-2.5,4.7-3.7c9.7-7.5,20.4-8.2,31.7-4.7c6.5,2,12.9,4.4,19.5,5.9
		c6.4,1.4,13,1.9,19.6,2.6c2.9,0.3,5.9,0.4,9.1,0.6c0-43,0-85.9,0-129.4c2.8,2.8,5.2,5.1,7.4,7.5c0.4,0.4,0.4,1.2,0.4,1.8
		c0,44.5,0,89,0,133.5C192.3,177.2,192.3,177.7,192.2,178.7z"/>
</g>
</svg>
