<?xml version="1.0" encoding="utf-8"?>
<!-- Generator: Adobe Illustrator 19.2.1, SVG Export Plug-In . SVG Version: 6.00 Build 0)  -->
<svg version="1.1" id="Layer_1" xmlns="http://www.w3.org/2000/svg" xmlns:xlink="http://www.w3.org/1999/xlink" x="0px" y="0px"
	 viewBox="0 0 200 204.8" style="enable-background:new 0 0 200 204.8;" xml:space="preserve">
<style type="text/css">
	.st0{fill:#FCC69F;}
	.st1{clip-path:url(#SVGID_2_);}
</style>
<g>
	<g>
		<path class="st0" d="M72.3,64.1c2.4-0.4,4.8-0.4,7.2-0.4c0.8,0,1.6,0,2.4,0c0,0,0,0,0.1,0c1,0,2.4,0.6,3,1.2
			c11.3,11.8,22.6,23.5,33.8,35.3l11.3,11.8c1.6,1.7,3.9,2.6,6.1,2.6c1.1,0,2.1-0.2,3.1-0.6c5.8-2.5,10-6.8,12.6-12.6
			c1.5-3.4,0.9-6.4-1.9-9.1c-14.2-14-28.6-28.4-42.5-42.2l-2.1-2.1c-0.6-0.6-1.2-1.7-1.4-2.4c-1.1-4.1-1.5-8.5-1.4-14
			c0.1-2.8,0.1-5.4-0.5-7.9C99.6,11.6,87,1.2,73.4,0c-0.5-0.1-1.1,0.2-1.5,0.6l-0.9,1c-1.5,1.6-3.6,3.7-4.4,4.6
			c-0.2,0.2-0.2,0.4-0.2,0.7c0,0.6,0.6,1.1,1.4,1.9l5.7,5.7c2.3,2.3,4.6,4.6,6.9,6.9c0.5,0.5,0.6,0.6,0.4,1.1
			c-0.8,2.4-1.6,4.8-2.4,7.2c-0.8,2.5-1.6,4.9-2.5,7.4c-0.1,0.2-0.4,0.6-0.7,0.6c-2.3,0.7-4.7,1.4-7,2.1c-2.2,0.7-4.4,1.3-6.6,2
			c-0.4,0.1-0.6,0.1-1-0.3c-1.8-1.8-3.6-3.7-5.5-5.5c-1.4-1.4-2.7-2.7-4.1-4.1c-1.1-1.1-2.2-2.2-3.3-3.3l-1.2-1.2
			c-0.4-0.4-0.9-0.5-1.4-0.2L44,27.8c-1.7,0.9-3.3,1.7-4.8,2.6c-0.7,0.4-1.2,1.3-1.1,2c0.1,6.7,2,12.9,5.8,18.4
			C51.2,61.5,60.5,65.8,72.3,64.1z M81.6,39.2c1.6-4.9,3.2-9.8,5.1-15.2c0.9-2.6,0.4-4.7-1.6-6.6c-2.7-2.5-5.3-5.1-7.9-7.7l-2.8-2.7
			c0.4-0.7,0.7-0.6,1.4-0.5c7.6,1.7,13.6,5.8,17.9,12.2c2.4,3.5,3.3,7.7,3,13.2c-0.3,5.6,0.3,10.9,1.7,15.9c0.5,1.7,1.3,3.1,2.7,4.4
			c7.8,7.7,15.5,15.4,23.3,23.1c7.2,7.2,14.4,14.3,21.6,21.5c0.8,0.8,0.9,1.4,0.5,2.3c-2,4.2-5.2,7.4-9.3,9.4
			c-1,0.5-1.6,0.3-2.5-0.6c-5-5.3-10.1-10.6-15.2-15.8c-9.4-9.8-19.1-19.8-28.5-29.9c-2.9-3.1-6.3-4.6-10.5-4.6c-0.1,0-0.3,0-0.4,0
			c-3.2,0.1-6.6,0.1-9.9,0.6c-7,0.9-12.8-1.2-18-6.5c-4.5-4.7-7.2-10.3-8-16.5c-0.1-0.5,0-0.7,0-0.7c0,0,0.1,0,0.2-0.1
			c0.3,0,0.7,0.1,0.9,0.3c4.1,4,7.8,7.8,11.4,11.4c1.8,1.8,3.8,2.3,6.2,1.6c4.7-1.5,9.6-2.9,14.2-4.2C79.5,42.8,80.9,41.4,81.6,39.2
			z"/>
		<path class="st0" d="M101.7,11.1c2.9,1.4,5.2,2.5,7.2,3.8c2.7,1.7,4.9,3.7,6.3,6.1c1.8,3,1.6,5.5-0.9,8c-1.2,1.2-2,2-2.9,2.8
			c-0.8,0.8-1.6,1.6-2.8,2.8c-0.4,0.4-0.9,0.9-0.8,1.5c0.1,1.4,0.3,2.7,0.5,4.2l0.4,2.9l2.4-2.4c1.1-1.1,2-2.1,3-3.1
			c0.9-0.9,1.5-1.5,2.1-2c0.6-0.5,1.1-1.1,2.1-2c5.3-5.4,5.7-11.6,1.1-17.6c-2.7-3.5-6.3-6.3-11.4-9c0,0-0.1,0-0.1-0.1
			c6.8-1.5,12.4-0.2,17.2,4c2.3,2,5.1,4,9.1,4c0.1,0,0.3,0,0.4,0c0.9,0,1.6,0.3,2.3,1.1c1.3,1.4,2.6,2.7,3.9,3.9
			c1.1,1,1.5,2,1.6,3.4c0.1,3.6,1.5,6.6,3.9,8.5c2.3,1.8,5.3,2.5,8.2,2c0.1,0,0.2,0,0.2,0c1.8,1.8,3.6,3.6,5.5,5.5l1,1l-1.8,1.8
			c-1.4,1.4-2.7,2.7-4.1,4.1c-1.4,1.4-2.8,2.9-4.3,4.3l-1.6,1.6l-1.3-1.3c-1.4-1.4-2.7-2.7-4-4c-0.8-0.8-1.2-1.4-1-2.5
			c0.2-1.1,0-2.3-0.2-3.1c-0.9-3.6-3.4-6.3-6.6-7.3c-3.2-1-6.7-0.2-9.5,2.3c-2.3,2-4.5,4.3-6.6,6.4c-1.1,1.1-2.2,2.2-3.3,3.3
			c-0.6,0.6-0.9,0.8-1.2,1c-0.3,0.2-0.6,0.5-1.2,1l-0.5,0.4l4.4,4.4l0.4-0.4c2.2-2.2,3.8-3.8,5.6-5.6l3.7-3.6c0.9-0.9,1.9-1.9,3-2.7
			c1-0.8,2.1-1.1,3-0.8c1,0.2,1.9,1,2.5,2.2c0.6,1.3,0.6,2.5-0.1,3.8c-0.6,1-0.4,1.8,0.4,2.6c1.9,1.9,3.8,3.8,5.7,5.7l2.5,2.5
			c1.4,1.4,2.8,2,4.2,2c1.4,0,2.8-0.7,4.2-2l12-12c2.6-2.6,2.6-5.6,0.1-8.2c-0.9-0.9-1.8-1.8-2.7-2.7c-1.8-1.8-3.5-3.5-5.2-5.3
			c-1-1.1-1.9-1.2-3.3-0.6c-1.2,0.5-2.4,0.6-3.4,0.1c-1.1-0.5-1.8-1.5-2.2-2.8c-0.2-0.6-0.2-1.2-0.3-1.9c-0.1-3-1.1-5.4-3.2-7.1
			c-1.2-1-2.5-2.3-4-4c-1.8-2-3.9-3-6.6-3c0,0,0,0,0,0c-1.9,0-3.4-0.5-4.6-1.6C122.2,0,111-1.8,101.4,3c-1.9,1-2.9,2.4-2.8,4.2
			C98.8,9.4,100.4,10.5,101.7,11.1z"/>
		<path class="st0" d="M75.2,70.4c0.2-0.2,0.5-0.5,0.7-0.7l1.8-1.9l-3.9,0.6c-1.5,0.2-3,0.5-4.4,0.7l-0.2,0c-0.9,0.2-1.9,0.4-2.5,1
			l-3,2.8c-7.2,6.8-13.7,12.9-21.2,19.9c-2,1.9-2.7,4.2-1.9,6.6c2.3,7.6,7.4,12.9,15.2,15.8c0.9,0.3,1.7,0.5,2.5,0.5
			c1.9,0,3.8-0.9,5.5-2.5c3.9-3.9,7.6-7.6,11.2-11.3c5.7-5.7,11-11.1,16.9-16.9c0.5-0.5,1.1-1,1.6-1.6l1.2-1.2L90.5,78l-1,1
			c-0.3,0.3-0.6,0.5-0.8,0.8c-5.8,5.8-11.4,11.3-16.8,16.7c-4,4.1-8.1,8.1-12.4,12.4c-0.9,0.9-1.7,1.1-2.8,0.6
			c-4.5-2.2-7.9-5.5-10-10c-0.5-1.1-0.4-1.9,0.6-2.8C57.1,87.5,65.5,79.6,75.2,70.4z"/>
	</g>
	<path class="st0" d="M196.5,106.5c-6.5-7-15.1-5.2-20.7-0.5c-12.1,9-37.7,27.9-39.9,29.4c2.6,0.7,4.9,2,6.5,4.2
		c2.9-2,36.2-26.8,37.8-28c1.9-1.6,6.7-4.8,11-0.2c3.8,4.1-0.1,8.8-2,10.7c-4.7,4.7-55.5,55.9-55.6,56c-0.1,0.1-9.2,9.5-22.5,7.6
		c-15.4-2.2-53.1-7.4-53.2-7.4c-3.4-0.4-6.2,0.6-8.7,3.2c-2.1,2.2-10.2,10.5-14.4,14.7L8.7,169.7l32.7-32.4
		c2.8-2.8,13.1-11.5,27.9-7.6C85,134,129,146.1,129,146.1c3.5,1,7.3,3.5,5.6,9.6c-0.5,1.8-1.4,3.1-2.7,3.7c-2.5,1.3-6.3,0.5-7.8,0
		l-36.4-9.8c-1.2,0.7-2.5,5.5-1.9,6.9l36.2,9.7c0.7,0.3,7.5,2.5,13.2-0.5c3.1-1.6,5.2-4.4,6.3-8.2c2.9-10.5-3.8-16.4-10.6-18.4
		c0,0-44.1-12.1-59.8-16.3c-12.5-3.4-25.5,0.2-34.8,9.4L1.1,167.1c-0.7,0.7-1.1,1.6-1.1,2.5c0,1,0.4,1.9,1,2.5l31.4,31.6
		c0.7,0.7,1.6,1.1,2.5,1.1c0,0,0,0,0,0c1,0,1.9-0.4,2.5-1.1c0,0,14.1-14.4,17-17.4c1.1-1.1,1.8-1.1,2.6-1c0,0,37.7,5.2,53.1,7.4
		c16.9,2.4,28.2-9.3,28.6-9.7c0,0,50.8-51.3,55.5-55.9C199.4,122,203,113.5,196.5,106.5z"/>
</g>
</svg>
