<svg id="Layer_1" data-name="Layer 1" xmlns="http://www.w3.org/2000/svg" viewBox="0 0 400 300"><defs><style>.cls-1{fill:#06b5b3;}.cls-2{fill:#fff;}</style></defs><title>project-icon</title><rect class="cls-1" width="400" height="300"/><path class="cls-2" d="M310.29,147.11c-8.81-16.35-23.56-30-43.84-40.72a143.86,143.86,0,0,0-61.51-16.62c-1.49-.12-3-0.24-4.5-0.25h-0.39a60.26,60.26,0,0,0-6.08.31A128.67,128.67,0,0,0,170.6,93c-35.16,8.39-61,24.67-76.89,48.39-0.69,1-1.29,1.91-1.83,2.68-3.93,5.71-3.93,5.92-.14,11.53,0.57,0.84,1.23,1.81,2,2.95,12.69,19.45,33.22,34.21,61,43.88a138.8,138.8,0,0,0,40.73,7.77c1.57,0.12,3.13.24,4.72,0.24h0.14a60.71,60.71,0,0,0,6.88-.42c1-.06,2.07,0,3.1-0.12a143.08,143.08,0,0,0,46.28-11.62c25.61-11.24,43.19-26.12,53.74-45.48A5.56,5.56,0,0,0,310.29,147.11Zm-59.29,3a50.74,50.74,0,0,1-51,50.7h-0.21a50.77,50.77,0,0,1-50.33-51.08c0.2-28.42,22.58-50.58,51-50.58h0.28A50.7,50.7,0,0,1,251,150.13Zm-93.27-43.07a59.67,59.67,0,0,0-17.9,42.45,60.6,60.6,0,0,0,17.54,43.11q2.13,2.15,4.44,4.06A146.35,146.35,0,0,1,135,184.76c-15.74-9-27.5-20.16-35-33.16a2.73,2.73,0,0,1,0-3.15c10.66-18.25,28-32,53.16-41.9,2.82-1.12,5.66-2.09,8.5-3C160.3,104.67,159,105.82,157.73,107.06Zm102.92,43.56a60.65,60.65,0,0,0-21.45-47q5.36,1.73,10.63,3.92c23.45,9.8,39.89,22.94,50.25,40.16a3.82,3.82,0,0,1,.05,4.51c-11.83,19.43-31.72,34.06-59.12,43.5-0.63.22-1.27,0.4-1.9,0.61A59.82,59.82,0,0,0,260.65,150.62Z"/><path class="cls-2" d="M200.62,122h-0.12a28.33,28.33,0,0,0-20,8.11,27.79,27.79,0,0,0-.24,39.51A28,28,0,0,0,200.19,178h0.07a28.1,28.1,0,0,0,28.08-27.93C228.4,134.92,215.7,122.08,200.62,122Zm16,41a3.46,3.46,0,0,1-3.46,3.46H187.31a3.46,3.46,0,0,1-3.46-3.46V137.19a3.46,3.46,0,0,1,3.46-3.46h25.86a3.46,3.46,0,0,1,3.46,3.46V163Z"/></svg>