<svg id="Layer_1" data-name="Layer 1" xmlns="http://www.w3.org/2000/svg" viewBox="0 0 400 300"><defs><style>.cls-1{fill:#424242;}.cls-2{fill:#fff;}</style></defs><title>project-icon</title><rect class="cls-1" width="400" height="300"/><path class="cls-2" d="M300.9,152l-21.72-6.24-13.66,5.11,20.34,5.85L183.66,195l-69.53-20L135,167.18l-14-4-22.22,8.31a4.34,4.34,0,0,0,.32,8.24l83.55,24a4.29,4.29,0,0,0,1.2.17,4.37,4.37,0,0,0,1.52-.28l115.86-43.35A4.34,4.34,0,0,0,300.9,152Z"/><path class="cls-2" d="M300.9,124.65l-22.51-6.47-13.66,5.11,21.13,6.07L183.66,167.6l-69.53-20,21.67-8.11-14-4-23,8.61a4.34,4.34,0,0,0,.32,8.24l83.55,24a4.29,4.29,0,0,0,1.2.17,4.36,4.36,0,0,0,1.52-.28l115.86-43.35A4.34,4.34,0,0,0,300.9,124.65Z"/><path class="cls-2" d="M183.84,148.62a4.29,4.29,0,0,1-1.2-.17l-83.55-24a4.34,4.34,0,0,1-.32-8.24L214.63,72.84a4.28,4.28,0,0,1,2.72-.11l83.55,24a4.34,4.34,0,0,1,.32,8.24L185.37,148.35A4.37,4.37,0,0,1,183.84,148.62Zm-69.7-28.9,69.52,20,102.2-38.23-69.53-20Z"/><path class="cls-2" d="M300.9,179.91l-22.49-6.47-13.66,5.11,21.11,6.07-102.2,38.23-69.52-20,21.65-8.1-14-4-23,8.6a4.34,4.34,0,0,0,.32,8.24l83.55,24a4.29,4.29,0,0,0,1.2.17,4.37,4.37,0,0,0,1.52-.28l115.86-43.35A4.34,4.34,0,0,0,300.9,179.91Z"/></svg>