<svg id="Layer_1" data-name="Layer 1" xmlns="http://www.w3.org/2000/svg" xmlns:xlink="http://www.w3.org/1999/xlink" viewBox="0 0 400 300"><defs><style>.cls-1{fill:none;}.cls-2{fill:#f36e21;}.cls-3{clip-path:url(#clip-path);}.cls-4{fill:#fff;}</style><clipPath id="clip-path"><path class="cls-1" d="M221.24,72.8a56,56,0,1,0,56,56A56,56,0,0,0,221.24,72.8Z"/></clipPath></defs><title>project-icon</title><rect class="cls-2" width="400" height="300"/><g class="cls-3"><path class="cls-4" d="M174.39,119.07h8.91a2.21,2.21,0,0,1,2.21,2.21v57.94a2.21,2.21,0,0,1-2.21,2.21l-8.91-4.34a2.21,2.21,0,0,1-2.21-2.21V121.28A2.21,2.21,0,0,1,174.39,119.07Z"/><rect class="cls-4" x="193.47" y="107.23" width="13.32" height="83.31" rx="2.21" ry="2.21"/><rect class="cls-4" x="214.58" y="94.03" width="13.32" height="101.02" rx="2.16" ry="2.16"/><rect class="cls-4" x="235.77" y="107.14" width="13.32" height="83.31" rx="2.21" ry="2.21"/><path class="cls-4" d="M259.18,119.07h8.91a2.21,2.21,0,0,1,2.21,2.21v53.59a2.21,2.21,0,0,1-2.21,2.21l-8.91,4.34a2.21,2.21,0,0,1-2.21-2.21V121.28A2.21,2.21,0,0,1,259.18,119.07Z"/></g><path class="cls-4" d="M270.16,79.84a69.19,69.19,0,0,0-102.33,92.91l-5.64,5.64a13.25,13.25,0,0,0-14.13,3L113.49,216a13.26,13.26,0,0,0,0,18.75l1.81,1.81a13.26,13.26,0,0,0,18.75,0l34.57-34.57a13.26,13.26,0,0,0,2.94-14.28l5.59-5.59A69.19,69.19,0,0,0,270.16,79.84ZM264,171.55A60.5,60.5,0,1,1,264,86,60.57,60.57,0,0,1,264,171.55Z"/></svg>